<svg xmlns="http://www.w3.org/2000/svg" xmlns:xlink="http://www.w3.org/1999/xlink" width="75" zoomAndPan="magnify" viewBox="0 0 56.879997 59.249999" height="79" preserveAspectRatio="xMidYMid meet" version="1.0"><defs><clipPath id="6c05b9cfbb"><path d="M 0.296875 0 L 55.84375 0 L 55.84375 58.507812 L 0.296875 58.507812 Z M 0.296875 0 " clip-rule="nonzero"/></clipPath><clipPath id="f7d4a7abdc"><path d="M 21.710938 13.601562 L 23.191406 13.601562 L 23.191406 15.085938 L 21.710938 15.085938 Z M 21.710938 13.601562 " clip-rule="nonzero"/></clipPath></defs><path fill="#231f20" d="M 40.011719 39.300781 C 38.371094 39.265625 36.800781 39.277344 35.183594 39.253906 C 31.988281 39.242188 28.78125 39.277344 25.582031 39.300781 L 20.78125 39.355469 L 18.378906 39.402344 L 17.179688 39.425781 C 16.972656 39.4375 16.789062 39.425781 16.566406 39.4375 C 16.335938 39.449219 16.117188 39.503906 15.910156 39.597656 C 15.496094 39.78125 15.160156 40.121094 15 40.535156 C 14.917969 40.738281 14.859375 40.957031 14.859375 41.171875 C 14.859375 41.390625 14.859375 41.574219 14.871094 41.78125 C 14.894531 42.566406 14.894531 43.367188 14.90625 44.15625 C 14.917969 45.746094 14.929688 47.320312 14.917969 48.910156 L 14.882812 51.289062 L 14.871094 51.585938 C 14.871094 51.6875 14.882812 51.8125 14.90625 51.925781 C 14.964844 52.15625 15.101562 52.359375 15.296875 52.5 C 15.484375 52.648438 15.726562 52.726562 15.96875 52.738281 L 16.566406 52.75 L 21.371094 52.851562 C 24.566406 52.898438 27.773438 52.875 30.972656 52.773438 C 34.167969 52.679688 37.378906 52.566406 40.574219 52.578125 C 40.992188 52.589844 41.394531 52.292969 41.523438 51.894531 C 41.589844 51.6875 41.566406 51.480469 41.566406 51.289062 L 41.578125 50.691406 C 41.589844 49.90625 41.601562 49.105469 41.625 48.316406 L 41.765625 43.5625 C 41.789062 42.761719 41.820312 41.984375 41.832031 41.171875 C 41.832031 40.707031 41.636719 40.226562 41.300781 39.871094 C 40.96875 39.539062 40.496094 39.324219 40.011719 39.300781 Z M 41.464844 50.703125 L 41.476562 51.296875 C 41.476562 51.492188 41.5 51.699219 41.441406 51.871094 C 41.335938 52.234375 40.96875 52.511719 40.574219 52.5 C 37.378906 52.511719 34.167969 52.394531 30.972656 52.304688 C 27.773438 52.203125 24.566406 52.179688 21.371094 52.222656 L 16.566406 52.328125 L 15.96875 52.339844 C 15.804688 52.339844 15.644531 52.292969 15.519531 52.203125 C 15.390625 52.109375 15.285156 51.972656 15.230469 51.8125 C 15.207031 51.734375 15.195312 51.652344 15.195312 51.5625 L 15.183594 51.265625 L 15.148438 48.886719 C 15.136719 47.300781 15.148438 45.722656 15.160156 44.132812 C 15.160156 43.34375 15.171875 42.546875 15.195312 41.757812 C 15.195312 41.5625 15.195312 41.355469 15.207031 41.171875 C 15.21875 41.003906 15.265625 40.820312 15.332031 40.660156 C 15.484375 40.339844 15.75 40.078125 16.082031 39.949219 C 16.246094 39.882812 16.417969 39.847656 16.589844 39.847656 C 16.777344 39.847656 16.984375 39.859375 17.179688 39.859375 L 18.378906 39.882812 L 20.78125 39.929688 L 25.582031 39.984375 C 28.78125 40.007812 31.988281 40.042969 35.183594 40.03125 L 39.976562 39.996094 C 40.597656 39.996094 41.1875 40.546875 41.210938 41.195312 L 41.28125 43.5625 L 41.417969 48.316406 C 41.453125 49.128906 41.453125 49.914062 41.464844 50.703125 Z M 41.464844 50.703125 " fill-opacity="1" fill-rule="nonzero"/><g clip-path="url(#6c05b9cfbb)"><path fill="#231f20" d="M 55.742188 15.484375 L 55.683594 14.148438 L 55.625 15.496094 C 55.59375 15.941406 55.625 16.386719 55.488281 16.789062 C 55.222656 17.597656 54.390625 18.160156 53.570312 18.125 C 52.742188 18.101562 52.003906 17.496094 51.816406 16.742188 C 51.761719 16.546875 51.761719 16.375 51.761719 16.160156 L 51.769531 15.484375 L 51.804688 14.148438 L 51.816406 13.816406 L 51.460938 13.804688 C 51.390625 13.804688 51.308594 13.804688 51.242188 13.804688 C 50.59375 12.789062 49.890625 11.816406 49.164062 10.867188 C 48.34375 9.816406 47.5 8.789062 46.625 7.78125 C 45.746094 6.777344 44.835938 5.804688 43.898438 4.855469 C 43.136719 4.089844 42.351562 3.335938 41.511719 2.628906 L 43.921875 2.605469 L 46.703125 5.382812 L 49.660156 8.296875 L 52.660156 11.210938 C 53.652344 12.191406 54.667969 13.164062 55.695312 14.136719 C 54.796875 13.109375 53.871094 12.089844 52.949219 11.0625 L 50.15625 7.976562 L 47.328125 4.890625 L 44.464844 1.816406 L 44.339844 1.679688 L 44.128906 1.679688 L 42.167969 1.65625 C 41.832031 1.28125 41.5 0.878906 41.140625 0.46875 L 41.082031 0.457031 L 41.039062 0.457031 C 36.789062 0.296875 32.53125 0.183594 28.273438 0.113281 C 26.148438 0.0703125 24.011719 0.0585938 21.890625 0.0351562 L 15.507812 0 L 15.265625 0 L 15.089844 0.171875 L 13.554688 1.761719 L 13.464844 1.863281 C 13.117188 1.851562 12.78125 1.839844 12.4375 1.828125 L 12.308594 1.828125 L 12.203125 1.929688 C 10.230469 3.886719 8.269531 5.851562 6.308594 7.828125 C 4.355469 9.816406 2.394531 11.78125 0.464844 13.78125 L 0.316406 13.941406 L 0.316406 16.171875 C 0.316406 16.410156 0.339844 16.730469 0.421875 16.992188 C 0.71875 18.089844 1.816406 18.914062 2.984375 18.902344 C 3.800781 18.914062 4.597656 18.488281 5.09375 17.863281 C 5.3125 18.148438 5.601562 18.398438 5.925781 18.582031 C 6.734375 19.027344 7.773438 19.015625 8.570312 18.535156 C 8.871094 18.363281 9.125 18.125 9.332031 17.863281 C 9.398438 17.953125 9.480469 18.03125 9.5625 18.113281 C 9.585938 18.136719 9.621094 18.160156 9.652344 18.191406 C 9.585938 19.484375 9.515625 20.765625 9.492188 22.054688 C 9.445312 23.449219 9.421875 24.84375 9.421875 26.238281 C 9.410156 27.632812 9.457031 29.027344 9.46875 30.421875 C 9.492188 31.722656 9.527344 33.027344 9.585938 34.328125 C 8.085938 34.351562 6.574219 34.375 5.070312 34.398438 L 4.863281 34.398438 L 4.863281 34.601562 L 4.886719 36.398438 L 4.886719 36.578125 L 5.058594 36.578125 C 6.054688 36.558594 7.046875 36.546875 8.039062 36.546875 C 8.085938 38.898438 8.128906 41.253906 8.128906 43.609375 L 8.152344 47.207031 L 8.128906 50.808594 C 8.109375 52.007812 8.109375 53.207031 8.074219 54.40625 L 8.0625 54.851562 C 8.050781 55.023438 8.085938 55.230469 8.164062 55.402344 C 8.316406 55.753906 8.660156 56.03125 9.054688 56.097656 C 9.273438 56.132812 9.398438 56.121094 9.5625 56.132812 L 9.644531 56.132812 C 9.632812 56.464844 9.621094 56.808594 9.632812 57.136719 C 9.644531 57.574219 9.652344 58.007812 9.699219 58.441406 L 9.6875 58.507812 L 9.757812 58.507812 C 10.128906 58.488281 10.507812 58.464844 10.878906 58.488281 L 10.925781 58.488281 L 10.925781 58.429688 C 10.957031 57.996094 11.003906 57.527344 10.980469 57.082031 C 10.96875 56.761719 10.945312 56.441406 10.914062 56.144531 L 18.171875 56.292969 C 23.019531 56.347656 27.867188 56.328125 32.726562 56.167969 C 36.996094 56.050781 41.269531 55.902344 45.539062 55.882812 C 45.515625 56.292969 45.503906 56.703125 45.515625 57.125 C 45.527344 57.5625 45.539062 57.996094 45.585938 58.429688 L 45.597656 58.507812 L 45.664062 58.507812 C 46.035156 58.488281 46.414062 58.464844 46.785156 58.488281 L 46.832031 58.488281 L 46.832031 58.429688 C 46.867188 57.996094 46.914062 57.527344 46.890625 57.082031 C 46.878906 56.65625 46.84375 56.246094 46.796875 55.882812 C 46.957031 55.882812 47.121094 55.882812 47.269531 55.882812 C 47.71875 55.890625 48.148438 55.5625 48.25 55.125 C 48.308594 54.898438 48.273438 54.691406 48.285156 54.488281 L 48.285156 53.859375 L 48.320312 51.367188 C 48.34375 49.699219 48.402344 48.042969 48.449219 46.375 L 48.597656 41.378906 C 48.65625 39.746094 48.691406 38.109375 48.722656 36.476562 C 49.660156 36.453125 50.582031 36.429688 51.507812 36.410156 L 51.574219 34.578125 L 51.574219 34.488281 L 51.484375 34.488281 C 49.960938 34.441406 48.4375 34.421875 46.914062 34.386719 C 46.867188 33.046875 46.855469 31.710938 46.902344 30.363281 C 46.945312 28.945312 47.027344 27.519531 47.050781 26.089844 C 47.0625 24.660156 47.027344 23.265625 46.992188 21.871094 C 46.957031 20.625 46.902344 19.402344 46.832031 18.203125 C 46.890625 18.160156 46.933594 18.113281 46.980469 18.054688 C 47.097656 17.929688 47.199219 17.804688 47.292969 17.65625 C 47.5 17.929688 47.765625 18.167969 48.078125 18.328125 C 48.828125 18.742188 49.773438 18.707031 50.46875 18.285156 C 50.882812 18.03125 51.207031 17.65625 51.390625 17.234375 C 51.792969 18.03125 52.671875 18.546875 53.550781 18.511719 C 54.542969 18.488281 55.453125 17.769531 55.671875 16.84375 C 55.824219 16.398438 55.742188 15.929688 55.742188 15.484375 Z M 43.011719 17.851562 C 43.082031 17.941406 43.160156 18.03125 43.242188 18.113281 C 43.738281 18.605469 44.429688 18.878906 45.132812 18.867188 C 45.261719 18.867188 45.378906 18.855469 45.503906 18.832031 C 45.445312 19.894531 45.398438 20.957031 45.378906 22.019531 C 45.332031 23.414062 45.308594 24.808594 45.308594 26.203125 C 45.296875 27.597656 45.34375 28.992188 45.355469 30.386719 C 45.378906 31.710938 45.421875 33.027344 45.480469 34.351562 C 43.621094 34.316406 41.753906 34.28125 39.894531 34.269531 L 34.089844 34.203125 L 28.285156 34.179688 C 24.417969 34.167969 20.539062 34.214844 16.671875 34.238281 C 14.789062 34.25 12.910156 34.269531 11.039062 34.292969 C 10.992188 32.992188 10.992188 31.6875 11.027344 30.386719 C 11.074219 28.96875 11.15625 27.539062 11.179688 26.113281 C 11.1875 24.683594 11.15625 23.289062 11.121094 21.894531 C 11.085938 20.84375 11.039062 19.816406 10.980469 18.796875 C 11.132812 18.820312 11.28125 18.832031 11.433594 18.832031 C 12.113281 18.820312 12.792969 18.535156 13.253906 18.054688 C 13.382812 17.929688 13.484375 17.78125 13.578125 17.632812 C 13.785156 17.929688 14.0625 18.179688 14.386719 18.339844 C 15.136719 18.753906 16.082031 18.730469 16.777344 18.308594 C 17.085938 18.125 17.351562 17.863281 17.539062 17.554688 C 18.011719 18.351562 18.910156 18.890625 19.847656 18.878906 C 20.664062 18.890625 21.449219 18.46875 21.945312 17.839844 C 22.164062 18.136719 22.453125 18.386719 22.777344 18.558594 C 23.585938 19.003906 24.625 18.992188 25.421875 18.511719 C 25.722656 18.339844 25.976562 18.113281 26.183594 17.839844 C 26.25 17.929688 26.332031 18.011719 26.414062 18.089844 C 26.910156 18.570312 27.601562 18.84375 28.285156 18.820312 C 28.964844 18.808594 29.644531 18.523438 30.105469 18.042969 C 30.234375 17.917969 30.335938 17.769531 30.429688 17.621094 C 30.636719 17.917969 30.914062 18.167969 31.238281 18.328125 C 31.988281 18.742188 32.933594 18.71875 33.628906 18.296875 C 34.007812 18.066406 34.308594 17.734375 34.503906 17.359375 C 34.941406 18.148438 35.832031 18.648438 36.707031 18.617188 C 37.5625 18.59375 38.324219 18.078125 38.695312 17.371094 C 38.902344 17.816406 39.25 18.214844 39.6875 18.46875 C 40.449219 18.925781 41.464844 18.9375 42.25 18.476562 C 42.550781 18.320312 42.804688 18.101562 43.011719 17.851562 Z M 29.957031 16.238281 C 29.945312 16.671875 29.75 17.097656 29.4375 17.382812 C 29.125 17.679688 28.710938 17.839844 28.285156 17.828125 C 27.855469 17.816406 27.453125 17.644531 27.175781 17.347656 C 26.886719 17.050781 26.726562 16.648438 26.726562 16.25 L 25.617188 16.25 C 25.617188 16.789062 25.316406 17.300781 24.84375 17.5625 C 24.382812 17.828125 23.78125 17.839844 23.308594 17.597656 C 22.835938 17.347656 22.5 16.84375 22.488281 16.308594 L 22.464844 14.707031 C 24.394531 14.71875 26.332031 14.730469 28.261719 14.71875 C 30.222656 14.71875 32.183594 14.683594 34.136719 14.660156 L 34.15625 15.507812 L 34.179688 16.179688 C 34.191406 16.398438 34.214844 16.660156 34.285156 16.890625 C 34.101562 17.3125 33.765625 17.667969 33.363281 17.863281 C 32.785156 18.136719 32.09375 18.089844 31.585938 17.746094 C 31.078125 17.414062 30.777344 16.832031 30.800781 16.261719 L 29.957031 16.261719 Z M 28.515625 2.515625 C 28.988281 2.503906 29.449219 2.492188 29.910156 2.480469 L 30.902344 5.347656 L 31.976562 8.34375 C 32.335938 9.335938 32.691406 10.34375 33.0625 11.335938 C 33.351562 12.101562 33.628906 12.878906 33.914062 13.644531 C 33.914062 13.65625 33.925781 13.667969 33.925781 13.679688 C 32.046875 13.644531 30.164062 13.621094 28.273438 13.621094 C 26.414062 13.597656 24.566406 13.621094 22.707031 13.632812 C 22.960938 12.867188 23.214844 12.101562 23.480469 11.335938 C 23.816406 10.332031 24.152344 9.324219 24.472656 8.320312 C 25.097656 6.410156 25.699219 4.503906 26.273438 2.582031 C 27.023438 2.546875 27.773438 2.527344 28.515625 2.515625 Z M 19.269531 11.324219 C 19.605469 10.320312 19.949219 9.3125 20.261719 8.308594 C 20.585938 7.300781 20.917969 6.296875 21.230469 5.28125 C 21.496094 4.398438 21.773438 3.53125 22.039062 2.652344 C 23.273438 2.628906 24.507812 2.605469 25.742188 2.582031 C 25.015625 4.386719 24.3125 6.207031 23.632812 8.023438 C 23.25 9.015625 22.882812 10.011719 22.523438 11.003906 C 22.199219 11.882812 21.867188 12.765625 21.554688 13.65625 L 21.4375 13.65625 L 21.4375 14 L 21.183594 14.71875 L 21.425781 14.71875 C 21.414062 15.257812 21.402344 15.792969 21.414062 16.363281 C 21.414062 16.375 21.414062 16.386719 21.414062 16.386719 C 21.402344 16.5 21.390625 16.59375 21.359375 16.707031 C 21.171875 17.347656 20.527344 17.816406 19.859375 17.804688 C 19.1875 17.804688 18.566406 17.324219 18.378906 16.695312 C 18.324219 16.535156 18.324219 16.398438 18.3125 16.191406 L 18.3125 15.519531 L 18.300781 14.261719 C 18.621094 13.265625 18.945312 12.296875 19.269531 11.324219 Z M 35.023438 15.496094 L 35.046875 14.628906 L 35.289062 14.628906 L 35.058594 14 C 34.976562 13.769531 34.886719 13.542969 34.804688 13.3125 C 34.550781 12.535156 34.285156 11.769531 34.03125 10.992188 C 33.695312 9.988281 33.363281 8.980469 33.003906 7.976562 L 31.964844 4.972656 L 31.15625 2.683594 C 32.171875 2.675781 33.175781 2.664062 34.191406 2.652344 C 34.851562 4.546875 35.496094 6.445312 36.179688 8.34375 L 38.3125 14.339844 L 38.441406 14.707031 L 38.542969 14.707031 L 38.464844 16.339844 C 38.464844 16.523438 38.488281 16.71875 38.519531 16.902344 C 38.222656 17.632812 37.449219 18.113281 36.699219 18.054688 C 35.914062 18.03125 35.207031 17.449219 35.046875 16.742188 C 35 16.558594 34.988281 16.398438 34.988281 16.179688 Z M 21.265625 2.652344 C 21.347656 2.652344 21.414062 2.652344 21.496094 2.652344 C 21.171875 3.441406 20.875 4.238281 20.550781 5.027344 C 20.15625 6.011719 19.789062 7.003906 19.40625 8 C 19.027344 8.992188 18.667969 9.988281 18.300781 10.980469 C 17.953125 11.90625 17.617188 12.832031 17.296875 13.757812 L 11.410156 13.667969 L 5.730469 13.621094 C 6.539062 12.925781 7.3125 12.191406 8.0625 11.4375 C 9.007812 10.492188 9.90625 9.519531 10.796875 8.523438 C 11.675781 7.53125 12.515625 6.503906 13.335938 5.441406 C 14.015625 4.558594 14.675781 3.65625 15.285156 2.707031 C 17.273438 2.695312 19.269531 2.683594 21.265625 2.652344 Z M 43.21875 5.441406 C 44.039062 6.492188 44.878906 7.519531 45.757812 8.523438 C 46.636719 9.53125 47.546875 10.503906 48.492188 11.4375 C 49.300781 12.261719 50.144531 13.050781 51.03125 13.804688 C 49.070312 13.757812 47.097656 13.734375 45.132812 13.703125 L 39.191406 13.632812 L 37.226562 7.976562 C 36.617188 6.214844 35.992188 4.457031 35.371094 2.695312 C 36.699219 2.695312 38.023438 2.683594 39.351562 2.675781 L 41.234375 2.652344 C 41.855469 3.609375 42.527344 4.535156 43.21875 5.441406 Z M 28.273438 1.003906 C 32.519531 0.9375 36.753906 0.824219 41.003906 0.664062 C 41.347656 0.996094 41.71875 1.324219 42.085938 1.679688 L 39.351562 1.632812 C 37.769531 1.609375 36.179688 1.601562 34.597656 1.601562 L 33.824219 1.601562 L 33.835938 1.644531 C 32.679688 1.621094 31.527344 1.609375 30.371094 1.609375 L 29.597656 1.609375 L 29.679688 1.839844 C 29.125 1.828125 28.570312 1.804688 28.019531 1.792969 C 25.652344 1.726562 23.308594 1.691406 20.964844 1.644531 C 19.0625 1.609375 17.167969 1.609375 15.265625 1.601562 L 15.738281 1.109375 L 21.878906 1.074219 C 24.023438 1.050781 26.148438 1.050781 28.273438 1.003906 Z M 4.542969 14.160156 L 4.542969 16.171875 C 4.542969 16.375 4.53125 16.511719 4.472656 16.671875 C 4.289062 17.3125 3.652344 17.78125 2.984375 17.769531 C 2.3125 17.769531 1.679688 17.3125 1.492188 16.671875 C 1.4375 16.511719 1.4375 16.375 1.425781 16.171875 L 1.425781 14.375 C 3.292969 12.421875 5.140625 10.445312 7.011719 8.492188 C 8.882812 6.492188 10.75 4.492188 12.597656 2.46875 C 12.703125 2.46875 12.804688 2.457031 12.910156 2.457031 L 12.65625 2.71875 L 13.984375 2.707031 C 14.316406 2.707031 14.640625 2.707031 14.976562 2.707031 C 14.167969 3.394531 13.40625 4.125 12.667969 4.867188 C 11.730469 5.816406 10.808594 6.789062 9.941406 7.792969 C 9.066406 8.789062 8.222656 9.828125 7.402344 10.878906 C 6.722656 11.769531 6.054688 12.671875 5.441406 13.632812 L 4.550781 13.632812 Z M 7.980469 17.5625 C 7.519531 17.828125 6.917969 17.839844 6.445312 17.585938 C 5.972656 17.335938 5.648438 16.832031 5.625 16.308594 C 5.625 16.261719 5.625 16.214844 5.625 16.171875 L 5.625 14.695312 L 11.398438 14.648438 L 17.167969 14.558594 L 17.167969 16.179688 C 17.167969 16.421875 17.191406 16.742188 17.273438 17.003906 C 17.285156 17.039062 17.308594 17.074219 17.316406 17.117188 C 17.121094 17.4375 16.84375 17.710938 16.511719 17.863281 C 15.933594 18.136719 15.242188 18.089844 14.734375 17.746094 C 14.226562 17.414062 13.925781 16.832031 13.949219 16.261719 L 13.09375 16.261719 C 13.082031 16.695312 12.886719 17.117188 12.5625 17.402344 C 12.25 17.703125 11.835938 17.863281 11.410156 17.851562 C 10.980469 17.839844 10.578125 17.667969 10.300781 17.371094 C 10.011719 17.074219 9.851562 16.671875 9.851562 16.273438 L 8.753906 16.273438 C 8.753906 16.777344 8.441406 17.300781 7.980469 17.5625 Z M 10.046875 22.03125 C 10.023438 20.808594 9.964844 19.597656 9.898438 18.375 C 10.171875 18.558594 10.484375 18.695312 10.808594 18.765625 C 10.75 19.917969 10.691406 21.0625 10.671875 22.167969 C 10.636719 23.574219 10.601562 24.957031 10.613281 26.328125 C 10.636719 27.6875 10.703125 29.050781 10.761719 30.433594 C 10.796875 31.710938 10.785156 33.015625 10.75 34.304688 C 10.484375 34.304688 10.230469 34.316406 9.964844 34.316406 C 10.023438 33.015625 10.058594 31.710938 10.082031 30.410156 C 10.105469 29.015625 10.140625 27.621094 10.128906 26.226562 C 10.117188 24.820312 10.09375 23.425781 10.046875 22.03125 Z M 9.839844 58.359375 C 9.875 57.949219 9.886719 57.539062 9.898438 57.125 C 9.90625 56.796875 9.898438 56.453125 9.886719 56.121094 L 10 56.121094 L 10.84375 56.144531 C 10.808594 56.5 10.785156 56.839844 10.773438 57.171875 C 10.75 57.582031 10.796875 57.972656 10.832031 58.382812 C 10.496094 58.394531 10.160156 58.382812 9.839844 58.359375 Z M 46.738281 58.382812 C 46.40625 58.394531 46.082031 58.382812 45.746094 58.359375 C 45.78125 57.949219 45.792969 57.539062 45.804688 57.125 C 45.816406 56.726562 45.804688 56.328125 45.78125 55.925781 C 45.941406 55.914062 46.105469 55.902344 46.277344 55.882812 C 46.4375 55.882812 46.601562 55.882812 46.773438 55.882812 C 46.726562 56.339844 46.691406 56.761719 46.679688 57.171875 C 46.660156 57.574219 46.703125 57.972656 46.738281 58.382812 Z M 48.148438 55.09375 C 48.066406 55.46875 47.683594 55.765625 47.292969 55.765625 C 46.980469 55.765625 46.660156 55.765625 46.347656 55.765625 C 46.128906 55.742188 45.90625 55.722656 45.675781 55.710938 L 45.574219 55.710938 L 45.574219 55.765625 C 41.300781 55.742188 37.03125 55.605469 32.75 55.480469 C 27.902344 55.320312 23.054688 55.285156 18.195312 55.355469 L 10.925781 55.503906 L 10.011719 55.527344 L 9.5625 55.539062 C 9.410156 55.539062 9.238281 55.550781 9.15625 55.539062 C 8.949219 55.515625 8.753906 55.378906 8.660156 55.183594 C 8.617188 55.082031 8.59375 54.988281 8.59375 54.863281 L 8.582031 54.417969 C 8.546875 53.21875 8.546875 52.019531 8.523438 50.820312 L 8.5 47.21875 L 8.523438 43.621094 C 8.523438 41.320312 8.570312 39.015625 8.617188 36.71875 C 11.847656 36.773438 15.078125 36.855469 18.3125 36.886719 C 21.636719 36.945312 24.960938 36.945312 28.292969 36.980469 L 33.28125 37.015625 L 38.265625 37.015625 C 41.429688 36.992188 44.582031 36.980469 47.742188 36.933594 C 47.777344 38.429688 47.8125 39.917969 47.859375 41.414062 L 48.007812 46.40625 C 48.054688 48.074219 48.113281 49.734375 48.136719 51.402344 L 48.171875 53.894531 L 48.171875 54.519531 C 48.160156 54.691406 48.195312 54.910156 48.148438 55.09375 Z M 48.746094 36.292969 L 48.757812 35.882812 L 48.226562 35.871094 C 44.902344 35.8125 41.578125 35.800781 38.242188 35.78125 L 33.257812 35.78125 L 28.273438 35.8125 C 24.949219 35.847656 21.625 35.847656 18.289062 35.90625 C 14.964844 35.941406 11.640625 36.019531 8.304688 36.078125 L 8.003906 36.078125 L 8.003906 36.226562 C 7.070312 36.214844 6.144531 36.203125 5.210938 36.191406 L 5.234375 34.773438 C 9.042969 34.84375 12.839844 34.886719 16.648438 34.910156 C 20.515625 34.933594 24.394531 34.96875 28.261719 34.96875 L 34.066406 34.945312 L 39.871094 34.878906 C 41.8125 34.867188 43.738281 34.820312 45.675781 34.785156 C 47.582031 34.75 49.484375 34.707031 51.402344 34.660156 L 51.460938 36.339844 C 50.558594 36.328125 49.660156 36.316406 48.746094 36.292969 Z M 46.660156 30.421875 C 46.691406 31.734375 46.691406 33.058594 46.648438 34.386719 C 46.382812 34.386719 46.128906 34.375 45.863281 34.363281 C 45.917969 33.039062 45.964844 31.710938 45.988281 30.398438 C 46.011719 29.003906 46.046875 27.609375 46.035156 26.214844 C 46.035156 24.820312 46 23.425781 45.964844 22.03125 C 45.941406 20.945312 45.894531 19.859375 45.839844 18.777344 C 46.171875 18.683594 46.484375 18.511719 46.761719 18.296875 C 46.691406 19.621094 46.636719 20.902344 46.589844 22.167969 C 46.554688 23.574219 46.519531 24.957031 46.53125 26.328125 C 46.542969 27.6875 46.613281 29.050781 46.660156 30.421875 Z M 50.246094 17.851562 C 49.671875 18.125 48.964844 18.066406 48.46875 17.722656 C 47.960938 17.394531 47.675781 16.808594 47.707031 16.238281 L 46.785156 16.238281 C 46.761719 16.660156 46.578125 17.074219 46.265625 17.359375 C 45.953125 17.644531 45.550781 17.792969 45.132812 17.78125 C 44.71875 17.78125 44.328125 17.609375 44.039062 17.3125 C 43.761719 17.027344 43.578125 16.636719 43.578125 16.226562 L 42.46875 16.226562 C 42.46875 16.765625 42.191406 17.289062 41.730469 17.574219 C 41.269531 17.871094 40.644531 17.90625 40.125 17.667969 C 39.605469 17.414062 39.226562 16.890625 39.167969 16.285156 L 39.085938 14.660156 L 45.132812 14.59375 C 47.132812 14.558594 49.128906 14.535156 51.113281 14.480469 L 51.136719 15.472656 L 51.148438 16.148438 C 51.148438 16.320312 51.171875 16.511719 51.21875 16.695312 C 51.066406 17.222656 50.699219 17.632812 50.246094 17.851562 Z M 50.246094 17.851562 " fill-opacity="1" fill-rule="nonzero"/></g><g clip-path="url(#f7d4a7abdc)"><path fill="#000000" d="M 22.449219 13.601562 C 22.859375 13.601562 23.191406 13.933594 23.191406 14.34375 C 23.191406 14.753906 22.859375 15.085938 22.449219 15.085938 C 22.042969 15.085938 21.710938 14.753906 21.710938 14.34375 C 21.710938 13.933594 22.042969 13.601562 22.449219 13.601562 Z M 22.449219 13.601562 " fill-opacity="1" fill-rule="evenodd"/></g></svg>