<?xml version="1.0" encoding="UTF-8" standalone="no"?>
<!-- Created with Inkscape (http://www.inkscape.org/) -->

<svg
   xmlns:dc="http://purl.org/dc/elements/1.1/"
   xmlns:cc="http://creativecommons.org/ns#"
   xmlns:rdf="http://www.w3.org/1999/02/22-rdf-syntax-ns#"
   xmlns:svg="http://www.w3.org/2000/svg"
   xmlns="http://www.w3.org/2000/svg"
   version="1.1"
   width="143.75"
   height="152.5"
   id="svg2"
   xml:space="preserve"><metadata
     id="metadata8"><rdf:RDF><cc:Work
         rdf:about=""><dc:format>image/svg+xml</dc:format><dc:type
           rdf:resource="http://purl.org/dc/dcmitype/StillImage" /><dc:title></dc:title></cc:Work></rdf:RDF></metadata><defs
     id="defs6"><clipPath
       id="clipPath32"><path
         d="m 53.83,824.92 54.36,0 0,-59.76 -54.36,0 0,59.76 z"
         id="path34" /></clipPath><clipPath
       id="clipPath64"><path
         d="m 53.83,824.92 54.36,0 0,-59.76 -54.36,0 0,59.76 z"
         id="path66" /></clipPath></defs><g
     transform="matrix(1.25,0,0,-1.25,0,152.5)"
     id="g10"><g
       transform="matrix(2.1176405,0,0,1.9848824,56.834011,103.27393)"
       id="g24"><path
         d="m 0,0 c 12.311,0 22.295,-9.824 22.295,-21.938 0,-12.114 -9.984,-21.938 -22.295,-21.938 -12.311,0 -22.295,9.824 -22.295,21.938 C -22.295,-9.824 -12.311,0 0,0"
         id="path26"
         style="fill:#fff200;fill-opacity:1;fill-rule:evenodd;stroke:none" /></g><g
       transform="matrix(2.1176405,0,0,1.9848824,-114.48946,-1517.2972)"
       id="g28"><g
         clip-path="url(#clipPath32)"
         id="g30"><g
           transform="translate(63.642,778.992)"
           id="g36"><path
             d="m 0,0 c -14.896,12.337 -9.012,37.117 13.836,42.888 l 6.202,0 C 41.911,37.686 50.265,16.334 34.872,-0.055 l -1.877,0.013 C 45.698,14.525 37.816,32.98 21.469,37.011 l -8.746,0 C -3.578,32.894 -10.501,15.803 1.453,0.09 L 1.113,-0.159 0,0"
             id="path38"
             style="fill:#d2ab67;fill-opacity:1;fill-rule:evenodd;stroke:none" /></g></g></g><g
       transform="matrix(2.1176405,0,0,1.9848824,33.783494,28.93412)"
       id="g40"><path
         d="M 0,0 C -11.417,6.731 -11.963,21.842 -1.293,28.818 -4.256,25.347 -5.819,21.66 -5.98,17.759 l 4.687,3.229 C -6.708,13.992 -6.654,6.996 0,0"
         id="path42"
         style="fill:#d2ab67;fill-opacity:1;fill-rule:evenodd;stroke:none" /></g><g
       transform="matrix(2.1176405,0,0,1.9848824,78.70712,29.011529)"
       id="g44"><path
         d="M 0,0 C 11.417,6.731 11.963,21.842 1.293,28.818 4.256,25.347 5.819,21.66 5.98,17.759 L 1.293,20.988 C 6.708,13.992 6.654,6.996 0,0"
         id="path46"
         style="fill:#d2ab67;fill-opacity:1;fill-rule:evenodd;stroke:none" /></g><g
       transform="matrix(2.1176405,0,0,1.9848824,32.587027,50.341076)"
       id="g48"><path
         d="M 0,0 0.081,4.919 3.475,4.83 C 5.507,4.575 7.102,3.284 8.363,0.302 9.908,-3.864 9.426,-7.645 6.304,-10.866 l -4.586,-0.035 c -3.101,2.467 -2.589,9.766 1.002,9.855 l 2.832,0.323 c 0.547,2.731 -2.3,3.139 -4.8,0.776 L 0,0"
         id="path50"
         style="fill:#009290;fill-opacity:1;fill-rule:evenodd;stroke:none" /></g><g
       transform="matrix(2.1176405,0,0,1.9848824,43.082053,43.864404)"
       id="g52"><path
         d="m 0,0 c -2.334,-0.445 -3.487,-3.366 -2.84,-5.87 0.886,-0.651 1.739,-0.623 2.474,-0.281 2.147,1.535 2.972,3.558 2.391,6.067 C 1.383,0.009 0.717,0.056 0,0"
         id="path54"
         style="fill:#fff200;fill-opacity:1;fill-rule:evenodd;stroke:none" /></g><g
       transform="matrix(2.1176405,0,0,1.9848824,81.379582,49.40818)"
       id="g56"><path
         d="m 0,0 0.537,0 -0.049,5.559 -3.71,0 c -2.051,0.118 -3.58,-1.386 -4.931,-3.95 -1.98,-3.881 -1.324,-7.904 1.513,-12.045 l 7.079,0.098 -0.048,5.266 -0.391,0 c -1.774,-3.117 -5.126,-4.231 -6.152,0 C -6.998,2.584 -2.701,3.885 0,0"
         id="path58"
         style="fill:#009290;fill-opacity:1;fill-rule:evenodd;stroke:none" /></g><g
       transform="matrix(2.1176405,0,0,1.9848824,-114.48946,-1517.2972)"
       id="g60"><g
         clip-path="url(#clipPath64)"
         id="g62"><g
           transform="translate(75.838,779.013)"
           id="g68"><path
             d="m 0,0 -15.974,-0.096 c -7.65,-1.56 -7.622,-11.958 -0.334,-13.566 l 42.996,-0.096 c 7.54,2.389 7.412,11.911 -0.24,13.662 L 9.9,-0.048 c -2.957,4.596 -4.224,9.643 1.13,15.323 2.079,2.135 3.028,5.989 2.915,9.875 l -2.348,-0.245 c 0.617,2.265 0.795,4.074 0.91,6.214 l -1.722,-0.033 c 0.633,2.266 0.735,3.899 0.601,6.102 -0.838,-0.165 -1.629,-0.255 -2.467,-0.233 0.272,3.589 -1.003,6.899 -4.111,8.862 -2.742,-2.073 -4.18,-5.024 -4.043,-9.034 -0.893,0.127 -1.722,0.318 -2.487,0.573 0.032,-2.5 0.447,-4.745 1.244,-6.736 -0.845,0.144 -1.626,0.351 -2.344,0.621 -0.071,-1.958 0.311,-4.219 1.005,-6.688 -0.797,0.208 -1.595,0.319 -2.392,0.621 -0.283,-3.164 0.57,-6.405 2.2,-9.697 C 2.742,13.921 4.83,4.12 0,0"
             id="path70"
             style="fill:#ffffff;fill-opacity:1;fill-rule:evenodd;stroke:none" /></g><g
           transform="translate(76.596,777.11)"
           id="g72"><path
             d="m 0,0 -14.812,0.16 c -7.803,0.019 -7.697,-9.284 -1.347,-10.28 l 42.012,0.16 c 5.758,2.244 4.753,8.351 -0.372,9.958 L 8.87,-0.042 C 4.421,4.172 3.314,9.529 7.094,16.554 L 1.579,16.487 C 4.859,10.052 4.461,4.516 0,0"
             id="path74"
             style="fill:#009290;fill-opacity:1;fill-rule:evenodd;stroke:none" /></g></g></g><g
       transform="matrix(2.1176405,0,0,1.9848824,51.641556,58.784765)"
       id="g76"><path
         d="M 0,0 C -3.061,1.132 -5.002,3.565 -5.17,8.165 -2.3,7.869 0.136,6.652 2.138,4.623 -0.256,3.895 -0.933,2.462 0,0"
         id="path78"
         style="fill:#009290;fill-opacity:1;fill-rule:evenodd;stroke:none" /></g><g
       transform="matrix(2.1176405,0,0,1.9848824,60.698704,58.784765)"
       id="g80"><path
         d="M 0,0 C 3.061,1.132 5.002,3.565 5.17,8.165 2.3,7.869 -0.136,6.652 -2.138,4.623 0.256,3.895 0.933,2.462 0,0"
         id="path82"
         style="fill:#009290;fill-opacity:1;fill-rule:evenodd;stroke:none" /></g><g
       transform="matrix(2.1176405,0,0,1.9848824,43.907933,86.966125)"
       id="g84"><path
         d="M 0,0 C 2.369,-0.072 4.304,-1.011 5.804,-2.817 7.337,-0.957 9.299,-0.126 11.555,0 12.563,-7.678 0.041,-9.191 0,0"
         id="path86"
         style="fill:#009290;fill-opacity:1;fill-rule:evenodd;stroke:none" /></g><g
       transform="matrix(2.1176405,0,0,1.9848824,46.319925,98.518144)"
       id="g88"><path
         d="M 0,0 C 1.937,-0.064 3.519,-0.899 4.746,-2.504 5.999,-0.851 7.603,-0.112 9.448,0 10.272,-6.825 0.033,-8.169 0,0"
         id="path90"
         style="fill:#009290;fill-opacity:1;fill-rule:evenodd;stroke:none" /></g><g
       transform="matrix(2.1176405,0,0,1.9848824,56.429541,114.39124)"
       id="g92"><path
         d="M 0,0 C -3.819,-2.805 -2.048,-7.896 -0.163,-9.049 2.862,-6.466 3.25,-3.016 0,0"
         id="path94"
         style="fill:#009290;fill-opacity:1;fill-rule:evenodd;stroke:none" /></g><g
       transform="matrix(2.1176405,0,0,1.9848824,56.133071,65.346787)"
       id="g96"><path
         d="m 0,0 c 0.739,0 1.339,-0.599 1.339,-1.338 0,-0.738 -0.6,-1.337 -1.339,-1.337 -0.739,0 -1.339,0.599 -1.339,1.337 C -1.339,-0.599 -0.739,0 0,0"
         id="path98"
         style="fill:#d2ab67;fill-opacity:1;fill-rule:evenodd;stroke:none" /></g><g
       transform="matrix(2.1176405,0,0,1.9848824,18.254836,13.739844)"
       id="g100"><path
         d="M 0,0 0.097,0.093 0.181,0.204 0.278,0.348 C 0.32,0.41 0.364,0.504 0.41,0.628 0.433,0.713 0.449,0.804 0.459,0.9 l 0,0.076 -0.014,0.051 C 0.417,1.135 0.387,1.211 0.354,1.256 0.327,1.324 0.29,1.378 0.243,1.418 L 0.16,1.486 0.063,1.528 C 0.012,1.511 -0.039,1.483 -0.09,1.443 L -0.222,1.29 -0.285,1.18 -0.354,1.027 l 0,-1.893 -0.869,0 0,0.942 C -1.297,0.031 -1.371,-0.003 -1.445,-0.026 l -0.251,-0.025 -0.278,0 c -0.152,0.006 -0.28,0.031 -0.382,0.076 -0.241,0.115 -0.431,0.34 -0.57,0.677 -0.051,0.16 -0.076,0.324 -0.076,0.495 0,0.331 0.089,0.605 0.267,0.825 0.179,0.219 0.412,0.335 0.699,0.346 l 0.278,0 c 0.051,0 0.11,-0.009 0.177,-0.029 0.067,-0.02 0.143,-0.055 0.226,-0.106 L -1.258,2.173 -1.119,2.097 -1.32,1.63 -1.598,1.63 -1.675,1.672 -1.723,1.706 -1.835,1.757 -1.932,1.706 C -1.964,1.689 -1.992,1.661 -2.015,1.621 -2.062,1.565 -2.096,1.5 -2.119,1.426 l -0.028,-0.238 0,-0.152 c 0.009,-0.029 0.018,-0.065 0.028,-0.111 0.023,-0.096 0.055,-0.167 0.097,-0.212 l 0.118,-0.136 c 0.042,-0.034 0.092,-0.059 0.153,-0.076 l 0.083,0.034 c 0.177,0.054 0.347,0.28 0.445,0.424 l 0,1.783 -2.085,0 0,0.543 4.865,0 0,-0.543 -1.911,0 0,-0.645 0.139,0.034 0.152,0.017 0.278,0.008 C 0.35,2.162 0.475,2.131 0.591,2.063 0.827,1.967 1.008,1.768 1.133,1.469 1.188,1.327 1.225,1.177 1.244,1.019 l 0.007,-0.06 0,-0.093 C 1.251,0.606 1.168,0.325 1.001,0.025 0.927,-0.11 0.862,-0.207 0.806,-0.263 L 0.591,-0.492 0.313,-0.484 0.236,-0.433 -0.09,-0.068 0,0"
         id="path102"
         style="fill:#ffffff;fill-opacity:1;fill-rule:nonzero;stroke:none" /></g><g
       transform="matrix(2.1176405,0,0,1.9848824,21.037416,7.8427586)"
       id="g104"><path
         d="m 0,0 -0.139,-0.025 -0.111,0 c -0.051,0 -0.09,0 -0.118,0 l -0.285,0 c -0.306,0 -0.549,0.1 -0.73,0.301 -0.18,0.201 -0.271,0.448 -0.271,0.743 0,0.294 0.086,0.535 0.257,0.721 0.088,0.096 0.176,0.167 0.264,0.213 0.107,0.039 0.206,0.059 0.299,0.059 l 0.883,0 0.007,-0.076 0,-0.068 0.007,-0.068 0,-0.297 -0.396,0 L -0.41,1.494 -0.521,1.469 -0.639,1.426 -0.743,1.351 C -0.776,1.317 -0.808,1.266 -0.841,1.2 -0.855,1.16 -0.866,1.092 -0.876,0.998 c 0,-0.152 0.056,-0.278 0.167,-0.38 l 0.125,-0.066 0.139,-0.043 0.619,0 0,-0.076 L 0.181,0.365 0.181,0 0,0"
         id="path106"
         style="fill:#ffffff;fill-opacity:1;fill-rule:nonzero;stroke:none" /></g><g
       transform="matrix(2.1176405,0,0,1.9848824,26.581398,14.581434)"
       id="g108"><path
         d="m 0,0 -0.09,-0.051 c -0.056,-0.034 -0.146,-0.068 -0.271,-0.102 l -0.285,-0.034 -0.278,0.009 c -0.139,0.005 -0.267,0.031 -0.383,0.076 -0.245,0.13 -0.428,0.351 -0.548,0.662 -0.047,0.153 -0.07,0.306 -0.07,0.459 l 0,1.299 -0.577,0 0,0.543 2.28,0 0,-0.543 -0.813,0 1.146,-1.197 0,-1.028 L 0,0 z m -1.077,1.426 0,-0.484 c 0,-0.141 0.046,-0.28 0.139,-0.416 L -0.841,0.424 -0.73,0.365 c 0.065,0.011 0.114,0.026 0.146,0.042 l 0.146,0.077 0.077,0.051 0.09,0.093 -0.806,0.798"
         id="path110"
         style="fill:#ffffff;fill-opacity:1;fill-rule:nonzero;stroke:none" /></g><g
       transform="matrix(2.1176405,0,0,1.9848824,28.495746,19.182392)"
       id="g112"><path
         d="m 0,0 0,-3.608 -0.869,0 0,3.608 -0.708,0 0,0.543 2.321,0 L 0.744,0 0,0"
         id="path114"
         style="fill:#ffffff;fill-opacity:1;fill-rule:nonzero;stroke:none" /></g><g
       transform="matrix(2.1176405,0,0,1.9848824,36.165839,13.739844)"
       id="g116"><path
         d="M 0,0 0.097,0.093 0.181,0.204 0.278,0.348 C 0.32,0.41 0.364,0.504 0.41,0.628 0.433,0.713 0.449,0.804 0.459,0.9 l 0,0.076 -0.014,0.051 C 0.417,1.135 0.387,1.211 0.354,1.256 0.327,1.324 0.29,1.378 0.243,1.418 L 0.16,1.486 0.063,1.528 C 0.012,1.511 -0.039,1.483 -0.09,1.443 L -0.222,1.29 -0.285,1.18 -0.354,1.027 l 0,-1.893 -0.869,0 0,0.942 C -1.297,0.031 -1.371,-0.003 -1.445,-0.026 l -0.251,-0.025 -0.278,0 c -0.152,0.006 -0.28,0.031 -0.382,0.076 -0.241,0.115 -0.431,0.34 -0.57,0.677 -0.051,0.16 -0.076,0.324 -0.076,0.495 0,0.331 0.089,0.605 0.267,0.825 0.179,0.219 0.412,0.335 0.699,0.346 l 0.278,0 c 0.051,0 0.11,-0.009 0.177,-0.029 0.067,-0.02 0.143,-0.055 0.226,-0.106 L -1.258,2.173 -1.119,2.097 -1.32,1.63 -1.598,1.63 -1.675,1.672 -1.723,1.706 -1.835,1.757 -1.932,1.706 C -1.964,1.689 -1.992,1.661 -2.015,1.621 -2.062,1.565 -2.096,1.5 -2.119,1.426 l -0.028,-0.238 0,-0.152 c 0.009,-0.029 0.018,-0.065 0.028,-0.111 0.023,-0.096 0.055,-0.167 0.097,-0.212 l 0.118,-0.136 c 0.042,-0.034 0.093,-0.059 0.153,-0.076 l 0.083,0.034 c 0.177,0.054 0.347,0.28 0.445,0.424 l 0,1.783 -2.085,0 0,0.543 4.865,0 0,-0.543 -1.911,0 0,-0.645 0.139,0.034 0.152,0.017 0.278,0.008 C 0.35,2.162 0.475,2.131 0.591,2.063 0.827,1.967 1.008,1.768 1.133,1.469 1.188,1.327 1.225,1.177 1.244,1.019 l 0.007,-0.06 0,-0.093 C 1.251,0.606 1.168,0.325 1.001,0.025 0.927,-0.11 0.862,-0.207 0.806,-0.263 L 0.591,-0.492 0.313,-0.484 0.236,-0.433 -0.09,-0.068 0,0"
         id="path118"
         style="fill:#ffffff;fill-opacity:1;fill-rule:nonzero;stroke:none" /></g><g
       transform="matrix(2.1176405,0,0,1.9848824,47.114041,17.294768)"
       id="g120"><path
         d="m 0,0 c 0.13,0 0.229,0.023 0.299,0.068 0.069,0.045 0.12,0.113 0.153,0.204 L 0.466,0.348 0.473,0.424 0.452,0.56 0.396,0.688 C 0.378,0.727 0.347,0.77 0.306,0.815 0.264,0.86 0.215,0.903 0.16,0.942 l -1.341,0 0,0.552 4.392,0 0,-0.552 -0.744,0 0,-3.599 -0.869,0 0,0.925 -0.055,-0.051 C 1.193,-2.044 1.033,-2.029 0.632,-2.02 l -0.041,0 c -0.158,0 -0.301,0.028 -0.431,0.085 -0.093,0.034 -0.216,0.113 -0.368,0.237 -0.061,0.068 -0.116,0.145 -0.167,0.229 l -0.112,0.264 -0.062,0.305 -0.014,0.119 0,0.153 -0.188,0 0,0.628 L 0,0 z m 1.598,0.942 -0.583,0 L 1.091,0.809 1.161,0.692 1.23,0.466 1.258,0.241 1.244,0.099 c 0,-0.068 -0.009,-0.12 -0.028,-0.16 C 1.184,-0.233 1.063,-0.389 0.855,-0.528 0.827,-0.545 0.778,-0.567 0.709,-0.594 l -0.195,-0.034 -0.208,0 0,-0.224 L 0.32,-0.98 0.361,-1.118 C 0.38,-1.169 0.405,-1.214 0.438,-1.255 l 0.132,-0.093 0.09,-0.044 0.104,-0.026 0.021,0.009 c 0.181,0.028 0.362,0.127 0.542,0.296 l 0.139,0.161 0.132,0.202 0,1.692"
         id="path122"
         style="fill:#ffffff;fill-opacity:1;fill-rule:nonzero;stroke:none" /></g><g
       transform="matrix(2.1176405,0,0,1.9848824,55.161075,12.475474)"
       id="g124"><path
         d="m 0,0 -0.195,0.231 c -0.31,0.367 -0.465,0.748 -0.465,1.14 0,0.192 0.021,0.366 0.062,0.519 0.088,0.319 0.251,0.562 0.487,0.733 0.106,0.074 0.218,0.113 0.333,0.119 l 1.502,0 0,-0.518 -1.036,0 L 0.528,2.122 0.424,2.037 C 0.243,1.855 0.153,1.626 0.153,1.347 c 0,-0.323 0.11,-0.593 0.33,-0.808 L 0.625,0.407 0.82,0.263 0.549,-0.272 0.271,-0.272 0,0 z m 1.237,3.379 -2.2238,0 0,0.54333 2.2238,0 0,-0.54333 z"
         id="path126"
         style="fill:#ffffff;fill-opacity:1;fill-rule:nonzero;stroke:none" /></g><g
       transform="matrix(2.1176405,0,0,1.9848824,63.949283,19.182392)"
       id="g128"><path
         d="m 0,0 0,-3.608 -0.869,0 0,2.301 -0.736,0 0,-0.348 -0.021,-0.153 -0.063,-0.111 c -0.037,-0.045 -0.088,-0.084 -0.153,-0.118 l -0.201,-0.034 -0.278,0 c -0.074,0 -0.139,0.014 -0.195,0.042 -0.111,0.075 -0.199,0.164 -0.264,0.268 l -0.062,0.128 c -0.037,0.115 -0.054,0.21 -0.049,0.283 l 0.007,0.13 0.042,0.155 c 0.032,0.126 0.104,0.209 0.215,0.249 l 0.16,0.061 0.174,0.025 1.424,0 0,0.73 -2.349,0 0,0.543 3.962,0 L 0.744,0 0,0"
         id="path130"
         style="fill:#ffffff;fill-opacity:1;fill-rule:nonzero;stroke:none" /></g><g
       transform="matrix(2.1176405,0,0,1.9848824,74.410427,12.020936)"
       id="g132"><path
         d="m 0,0 c -0.227,0 -0.41,0.048 -0.549,0.144 -0.06,0.04 -0.127,0.105 -0.202,0.196 -0.12,0.13 -0.208,0.322 -0.264,0.577 -0.023,0.107 -0.041,0.257 -0.055,0.45 l -0.014,0.186 0,0.264 -0.222,0 -0.091,0.008 -0.076,0.071 -0.049,0.095 -0.014,0.123 c 0,0.063 0.005,0.11 0.014,0.138 l 0.049,0.105 0.076,0.062 0.091,0.026 0.861,0 c 0.074,0 0.13,0.011 0.167,0.034 0.037,0.005 0.076,0.031 0.118,0.076 0.037,0.028 0.074,0.079 0.111,0.153 l 0.028,0.068 c 0.076,0.221 0.019,0.495 -0.104,0.687 l -0.083,0.136 -1.634,0 0,0.552 3.336,0 0,-0.552 -0.792,0 L 0.757,3.448 0.799,3.313 0.848,3.07 0.869,2.834 C 0.869,2.739 0.859,2.657 0.841,2.591 L 0.778,2.354 C 0.663,2.091 0.468,1.926 0.195,1.859 l -0.174,-0.042 -0.229,0 0,-0.394 c 0,-0.09 0.004,-0.157 0.013,-0.196 L -0.153,1.055 -0.069,0.816 C -0.046,0.748 -0.007,0.698 0.049,0.664 L 0.188,0.577 0.361,0.552 1.015,0.552 1.015,0 0,0"
         id="path134"
         style="fill:#ffffff;fill-opacity:1;fill-rule:nonzero;stroke:none" /></g><g
       transform="matrix(2.1176405,0,0,1.9848824,83.401928,16.030399)"
       id="g136"><path
         d="m 0,0 -0.097,-0.025 -0.264,-0.06 -0.216,-0.017 -0.278,0.009 c 0,0 -0.06,0 -0.181,0 -0.046,0.011 -0.091,0.022 -0.135,0.034 -0.044,0.011 -0.159,0.053 -0.344,0.127 L -1.598,0.102 -1.696,0.161 -1.737,0.127 -1.772,0.093 c -0.148,-0.147 -0.222,-0.328 -0.222,-0.543 0,-0.068 0.004,-0.122 0.013,-0.161 l 0.049,-0.136 0.077,-0.11 0.09,-0.077 0.028,-0.017 0.034,-0.017 0,0.095 c 0,0.081 0.005,0.134 0.014,0.164 l 0.042,0.129 c 0.056,0.12 0.158,0.184 0.306,0.19 l 0.278,0 c 0.065,0 0.12,-0.015 0.166,-0.043 0.107,-0.045 0.181,-0.127 0.223,-0.246 0.014,-0.051 0.025,-0.122 0.035,-0.212 0,-0.074 -0.01,-0.14 -0.028,-0.2 C -0.686,-1.15 -0.718,-1.2 -0.764,-1.239 l -0.056,-0.051 -0.07,-0.051 0,-0.102 c 0.036,-0.479 0.499,-0.473 0.265,-0.773 l -0.07,-0.068 C -0.723,-2.3 -0.755,-2.309 -0.792,-2.309 l -0.278,0 -0.104,0.025 c -0.033,0.006 -0.07,0.026 -0.112,0.06 l -0.097,0.093 -0.076,0.111 -0.084,0.161 -0.048,0.212 -0.014,0.034 0,0.059 0.278,0.009 -0.042,-0.025 c -0.222,-0.035 -0.452,-0.02 -0.674,0 l -0.063,0.016 c -0.199,0.057 -0.375,0.182 -0.528,0.374 -0.153,0.193 -0.229,0.444 -0.229,0.756 0,0.271 0.083,0.52 0.25,0.747 l 0.104,0.101 0.153,0.119 -0.062,0.043 -0.042,0.042 c -0.162,0.164 -0.243,0.371 -0.243,0.62 l 0,0.076 0.007,0.06 c 0,0.22 0.092,0.413 0.278,0.577 0.171,0.153 0.393,0.232 0.667,0.238 l 0.278,0.008 C -1.367,2.213 -1.251,2.187 -1.126,2.131 -0.815,2.001 -0.66,1.723 -0.66,1.299 -0.66,1.214 -0.676,1.125 -0.709,1.031 -0.741,0.938 -0.788,0.857 -0.848,0.789 L -0.924,0.705 -1.036,0.611 -0.973,0.569 -0.91,0.543 -0.799,0.501 c 0.046,0 0.083,-0.006 0.111,-0.017 l 0.16,0.042 0.18,0.068 0.084,0.043 0.118,0.085 0.278,0.008 0,-0.679 L 0,0 z M -1.612,1.638 -1.668,1.613 -1.71,1.587 C -1.747,1.565 -1.779,1.525 -1.807,1.469 l -0.035,-0.17 c 0,-0.17 0.037,-0.289 0.112,-0.357 l 0.02,-0.025 0.028,0.017 0.021,0.017 c 0.13,0.107 0.202,0.223 0.215,0.348 0,0.164 -0.055,0.277 -0.166,0.339"
         id="path138"
         style="fill:#ffffff;fill-opacity:1;fill-rule:nonzero;stroke:none" /></g><g
       transform="matrix(2.1176405,0,0,1.9848824,85.358628,19.182392)"
       id="g140"><path
         d="m 0,0 0,-3.608 -0.869,0 0,3.608 -0.708,0 0,0.543 2.321,0 L 0.744,0 0,0"
         id="path142"
         style="fill:#ffffff;fill-opacity:1;fill-rule:nonzero;stroke:none" /></g><g
       transform="matrix(2.1176405,0,0,1.9848824,91.55484,19.182392)"
       id="g144"><path
         d="m 0,0 0,-1.536 c 0,-0.21 -0.054,-0.398 -0.163,-0.565 -0.109,-0.167 -0.247,-0.29 -0.414,-0.369 -0.116,-0.057 -0.229,-0.082 -0.34,-0.077 l -0.278,0.009 c -0.07,0 -0.19,0.022 -0.362,0.068 -0.241,0.113 -0.412,0.3 -0.514,0.56 -0.046,0.119 -0.07,0.24 -0.07,0.365 l 0,1.545 -0.472,0 0,0.543 3.058,0 L 0.445,0 0,0 z m -0.862,0 -0.417,0 0,-1.536 0.021,-0.196 0.063,-0.136 0.055,-0.059 0.077,-0.042 0.062,0.042 0.063,0.059 0.055,0.145 0.021,0.178 0,1.545"
         id="path146"
         style="fill:#ffffff;fill-opacity:1;fill-rule:nonzero;stroke:none" /></g><g
       transform="matrix(2.1176405,0,0,1.9848824,94.924006,19.182392)"
       id="g148"><path
         d="m 0,0 0,-3.608 -0.869,0 0,3.608 -0.708,0 0,0.543 2.321,0 L 0.744,0 0,0"
         id="path150"
         style="fill:#ffffff;fill-opacity:1;fill-rule:nonzero;stroke:none" /></g><g
       transform="matrix(2.1176405,0,0,1.9848824,102.56233,19.182392)"
       id="g152"><path
         d="m 0,0 0,-3.608 -0.869,0 0,1.562 -0.722,0 c 0,-0.073 -0.005,-0.136 -0.014,-0.187 l -0.021,-0.11 c -0.06,-0.198 -0.183,-0.294 -0.368,-0.289 l -0.279,0.009 c -0.185,0.006 -0.328,0.071 -0.43,0.196 -0.126,0.155 -0.183,0.315 -0.174,0.479 l 0.007,0.137 0.041,0.146 c 0.028,0.09 0.105,0.162 0.23,0.213 l 0.069,0.009 0.098,0.017 0,1.426 -0.862,0 0,0.543 4.038,0 L 0.744,0 0,0 z m -0.869,0 -0.72269,0 0,-1.4261 0.72269,0 0,1.4261 z"
         id="path154"
         style="fill:#ffffff;fill-opacity:1;fill-rule:nonzero;stroke:none" /></g><g
       transform="matrix(2.1176405,0,0,1.9848824,104.22891,8.5672411)"
       id="g156"><path
         d="m 0,0 -0.278,0 -0.709,0.739 -0.91,0.348 0.521,0.5 0.278,0 L -0.354,1.205 0.375,0.382 0,0"
         id="path158"
         style="fill:#ffffff;fill-opacity:1;fill-rule:nonzero;stroke:none" /></g></g></svg>