<svg xmlns="http://www.w3.org/2000/svg" xmlns:xlink="http://www.w3.org/1999/xlink" width="143" zoomAndPan="magnify" viewBox="0 0 108 98.999996" height="132" preserveAspectRatio="xMidYMid meet" version="1.0"><defs><filter x="0%" y="0%" width="100%" height="100%" id="987150d039"><feColorMatrix values="0 0 0 0 1 0 0 0 0 1 0 0 0 0 1 0 0 0 1 0" color-interpolation-filters="sRGB"/></filter><mask id="a90d914d63"><g filter="url(#987150d039)"><rect x="-10.8" width="129.6" fill="#000000" y="-9.9" height="118.799995" fill-opacity="0.5"/></g></mask><clipPath id="44ddd679bd"><path d="M 0 0.289062 L 108 0.289062 L 108 93 L 0 93 Z M 0 0.289062 " clip-rule="nonzero"/></clipPath><clipPath id="d183b2e824"><rect x="0" width="108" y="0" height="93"/></clipPath></defs><g mask="url(#a90d914d63)"><g transform="matrix(1, 0, 0, 1, 0, 3)"><g clip-path="url(#d183b2e824)"><g clip-path="url(#44ddd679bd)"><path fill="#0e0e0e" d="M 104.457031 37.144531 C 104.457031 37.628906 104.027344 38.363281 102.863281 39.214844 L 102.863281 32.460938 C 103.4375 32.152344 103.976562 31.832031 104.457031 31.5 Z M 98.855469 34.195312 C 99.113281 34.101562 99.375 34.007812 99.625 33.914062 L 99.625 40.960938 C 99.378906 41.0625 99.121094 41.167969 98.855469 41.273438 Z M 94.847656 35.414062 C 95.105469 35.347656 95.363281 35.277344 95.617188 35.207031 L 95.617188 42.359375 C 95.367188 42.433594 95.109375 42.507812 94.847656 42.578125 Z M 90.839844 36.34375 C 91.09375 36.289062 91.355469 36.238281 91.609375 36.183594 L 91.609375 43.382812 C 91.355469 43.4375 91.09375 43.492188 90.839844 43.546875 Z M 91.636719 53.152344 C 91.636719 54.300781 89.265625 56.828125 80.378906 59.019531 C 72.445312 60.976562 61.875 62.054688 50.609375 62.054688 C 48.960938 62.054688 47.335938 62.027344 45.722656 61.984375 C 66.964844 61.808594 87.992188 57.75 88.523438 50.148438 C 90.855469 51.386719 91.636719 52.496094 91.636719 53.152344 Z M 91.636719 63.675781 C 91.636719 64.160156 91.210938 64.894531 90.042969 65.746094 L 90.042969 58.988281 C 90.621094 58.679688 91.15625 58.363281 91.636719 58.03125 Z M 87.941406 80.691406 C 87.941406 81.179688 87.511719 81.914062 86.347656 82.761719 L 86.347656 76.007812 C 86.921875 75.699219 87.460938 75.378906 87.941406 75.046875 Z M 82.339844 77.742188 C 82.597656 77.648438 82.859375 77.558594 83.109375 77.460938 L 83.109375 84.507812 C 82.863281 84.613281 82.605469 84.714844 82.339844 84.820312 Z M 78.328125 78.964844 C 78.589844 78.894531 78.847656 78.828125 79.101562 78.757812 L 79.101562 85.910156 C 78.851562 85.980469 78.59375 86.054688 78.328125 86.128906 Z M 74.320312 79.890625 C 74.578125 79.839844 74.839844 79.789062 75.089844 79.734375 L 75.089844 86.929688 C 74.839844 86.988281 74.578125 87.039062 74.320312 87.09375 Z M 70.3125 80.613281 C 70.570312 80.570312 70.832031 80.53125 71.082031 80.488281 L 71.082031 87.71875 C 70.828125 87.761719 70.574219 87.808594 70.3125 87.851562 Z M 27.507812 88.433594 L 27.507812 81.175781 C 33.585938 81.929688 40.261719 82.3125 46.910156 82.3125 C 53.84375 82.3125 60.796875 81.898438 67.074219 81.082031 L 67.074219 88.332031 C 60.96875 89.15625 54.082031 89.59375 46.910156 89.59375 C 40.039062 89.59375 33.421875 89.191406 27.507812 88.433594 Z M 23.5 80.613281 C 23.753906 80.652344 24.011719 80.695312 24.269531 80.730469 L 24.269531 87.972656 C 24.011719 87.929688 23.753906 87.890625 23.5 87.851562 Z M 19.492188 79.890625 C 19.746094 79.941406 20.003906 79.992188 20.261719 80.042969 L 20.261719 87.257812 C 20 87.203125 19.75 87.148438 19.492188 87.09375 Z M 15.484375 78.960938 C 15.738281 79.027344 15.992188 79.097656 16.253906 79.160156 L 16.253906 86.332031 C 15.992188 86.265625 15.734375 86.195312 15.484375 86.125 Z M 11.476562 77.738281 C 11.726562 77.828125 11.984375 77.917969 12.246094 78.003906 L 12.246094 85.105469 C 11.976562 85.011719 11.722656 84.914062 11.476562 84.816406 Z M 5.882812 80.691406 L 5.882812 75.046875 C 6.570312 75.519531 7.359375 75.972656 8.238281 76.398438 L 8.238281 83.269531 C 6.492188 82.207031 5.882812 81.273438 5.882812 80.691406 Z M 8.316406 67.546875 C 14.226562 72.992188 32.507812 75.8125 50.609375 75.8125 C 65.03125 75.8125 79.566406 74.023438 87.867188 70.542969 C 87.417969 71.804688 84.707031 74.058594 76.679688 76.039062 C 68.75 77.996094 58.175781 79.074219 46.910156 79.074219 C 35.648438 79.074219 25.074219 77.996094 17.144531 76.039062 C 8.8125 73.984375 6.207031 71.632812 5.914062 70.402344 C 5.894531 70.320312 5.882812 70.242188 5.882812 70.171875 C 5.882812 69.582031 6.511719 68.632812 8.316406 67.546875 Z M 3.242188 49.851562 L 3.242188 44.207031 C 3.929688 44.679688 4.71875 45.128906 5.597656 45.558594 L 5.597656 52.425781 C 3.847656 51.363281 3.242188 50.429688 3.242188 49.851562 Z M 14.503906 33.460938 C 15.96875 33.097656 17.527344 32.769531 19.160156 32.46875 L 19.160156 37.144531 C 19.160156 42.789062 30.339844 46.527344 44.679688 48.230469 C 44.542969 48.230469 44.40625 48.230469 44.269531 48.230469 C 33.007812 48.230469 22.433594 47.152344 14.503906 45.195312 C 10.066406 44.101562 7.257812 42.925781 5.550781 41.878906 C 5.546875 41.875 5.542969 41.871094 5.539062 41.871094 C 5.480469 41.832031 5.421875 41.796875 5.363281 41.757812 C 5.320312 41.730469 5.273438 41.703125 5.234375 41.675781 C 5.226562 41.671875 5.222656 41.667969 5.214844 41.664062 C 3.761719 40.703125 3.242188 39.863281 3.242188 39.328125 C 3.242188 38.183594 5.613281 35.65625 14.503906 33.460938 Z M 8.074219 22.980469 L 8.074219 17.335938 C 8.761719 17.808594 9.550781 18.257812 10.425781 18.6875 L 10.425781 25.558594 C 8.679688 24.492188 8.074219 23.5625 8.074219 22.980469 Z M 19.335938 6.59375 C 27.265625 4.636719 37.835938 3.558594 49.101562 3.558594 C 60.367188 3.558594 70.9375 4.636719 78.871094 6.59375 C 87.757812 8.785156 90.128906 11.3125 90.128906 12.460938 C 90.128906 13.609375 87.757812 16.136719 78.871094 18.328125 C 70.9375 20.285156 60.367188 21.363281 49.101562 21.363281 C 47.578125 21.363281 46.066406 21.339844 44.570312 21.300781 C 43.894531 21.285156 43.21875 21.261719 42.546875 21.238281 C 33.78125 20.902344 25.703125 19.898438 19.335938 18.328125 C 10.445312 16.136719 8.074219 13.609375 8.074219 12.460938 C 8.074219 11.3125 10.445312 8.785156 19.335938 6.59375 Z M 83.707031 48.039062 C 84.242188 47.96875 84.773438 47.894531 85.300781 47.820312 L 85.300781 49.851562 C 85.300781 50.335938 84.871094 51.070312 83.707031 51.921875 Z M 79.699219 48.5 C 79.957031 48.472656 80.210938 48.445312 80.46875 48.421875 L 80.46875 53.667969 C 80.222656 53.769531 79.964844 53.875 79.699219 53.980469 Z M 75.6875 48.84375 C 75.945312 48.828125 76.203125 48.808594 76.460938 48.785156 L 76.460938 55.066406 C 76.210938 55.140625 75.953125 55.214844 75.6875 55.285156 Z M 71.679688 49.085938 C 71.9375 49.074219 72.195312 49.0625 72.453125 49.046875 L 72.453125 56.089844 C 72.199219 56.144531 71.9375 56.199219 71.679688 56.253906 Z M 67.671875 49.769531 C 67.929688 49.730469 68.1875 49.691406 68.441406 49.648438 L 68.441406 56.875 C 68.183594 56.921875 67.933594 56.964844 67.671875 57.007812 Z M 87.601562 36.941406 L 87.601562 44.167969 C 87.34375 44.214844 87.089844 44.257812 86.828125 44.304688 L 86.828125 37.066406 C 87.085938 37.023438 87.34375 36.984375 87.601562 36.941406 Z M 44.023438 37.628906 C 50.101562 38.378906 56.777344 38.761719 63.429688 38.761719 C 70.359375 38.761719 77.3125 38.347656 83.589844 37.53125 L 83.589844 44.785156 C 77.484375 45.609375 70.597656 46.046875 63.429688 46.046875 C 56.554688 46.046875 49.941406 45.640625 44.023438 44.886719 Z M 40.015625 37.0625 C 40.269531 37.101562 40.527344 37.144531 40.785156 37.183594 L 40.785156 44.421875 C 40.527344 44.382812 40.269531 44.34375 40.015625 44.300781 Z M 36.007812 36.339844 C 36.261719 36.390625 36.519531 36.445312 36.777344 36.492188 L 36.777344 43.707031 C 36.515625 43.65625 36.265625 43.597656 36.007812 43.542969 Z M 32 35.414062 C 32.253906 35.480469 32.507812 35.546875 32.769531 35.613281 L 32.769531 42.785156 C 32.507812 42.714844 32.25 42.644531 32 42.578125 Z M 27.992188 34.191406 C 28.242188 34.277344 28.5 34.367188 28.761719 34.453125 L 28.761719 41.558594 C 28.492188 41.460938 28.238281 41.363281 27.992188 41.265625 Z M 22.398438 32.84375 C 23.167969 32.992188 23.953125 33.132812 24.753906 33.269531 L 24.753906 39.71875 C 23.007812 38.65625 22.398438 37.722656 22.398438 37.144531 Z M 17.671875 21.25 C 17.929688 21.316406 18.183594 21.386719 18.441406 21.449219 L 18.441406 28.621094 C 18.179688 28.554688 17.925781 28.484375 17.671875 28.414062 Z M 13.664062 20.027344 C 13.917969 20.117188 14.171875 20.207031 14.433594 20.292969 L 14.433594 27.394531 C 14.167969 27.296875 13.914062 27.203125 13.664062 27.105469 Z M 26.460938 30.257812 C 26.203125 30.21875 25.941406 30.179688 25.691406 30.136719 L 25.691406 22.898438 C 25.945312 22.941406 26.199219 22.980469 26.460938 23.019531 Z M 21.679688 22.175781 C 21.9375 22.230469 22.191406 22.28125 22.453125 22.332031 L 22.453125 29.546875 C 22.191406 29.492188 21.9375 29.4375 21.679688 29.382812 Z M 69.265625 30.625 C 63.160156 31.445312 56.273438 31.882812 49.101562 31.882812 C 42.226562 31.882812 35.613281 31.480469 29.699219 30.722656 L 29.699219 23.464844 C 35.777344 24.214844 42.449219 24.601562 49.101562 24.601562 C 56.03125 24.601562 62.988281 24.1875 69.265625 23.371094 Z M 73.273438 30.007812 C 73.015625 30.050781 72.765625 30.097656 72.503906 30.140625 L 72.503906 22.902344 C 72.761719 22.863281 73.019531 22.820312 73.273438 22.777344 Z M 77.28125 29.222656 C 77.03125 29.277344 76.769531 29.328125 76.511719 29.382812 L 76.511719 22.179688 C 76.769531 22.128906 77.027344 22.074219 77.28125 22.023438 Z M 81.292969 28.199219 C 81.039062 28.269531 80.785156 28.34375 80.519531 28.417969 L 80.519531 21.253906 C 80.78125 21.1875 81.035156 21.117188 81.292969 21.046875 Z M 85.300781 26.796875 C 85.050781 26.902344 84.796875 27.003906 84.53125 27.109375 L 84.53125 20.03125 C 84.789062 19.941406 85.046875 19.847656 85.300781 19.75 Z M 90.128906 17.335938 L 90.128906 22.980469 C 90.128906 23.46875 89.703125 24.199219 88.539062 25.050781 L 88.539062 18.296875 C 89.113281 17.988281 89.648438 17.667969 90.128906 17.335938 Z M 24.867188 57.59375 L 24.867188 50.335938 C 30.945312 51.085938 37.617188 51.46875 44.269531 51.46875 C 51.199219 51.46875 58.15625 51.054688 64.433594 50.238281 L 64.433594 57.492188 C 58.328125 58.316406 51.441406 58.753906 44.269531 58.753906 C 37.394531 58.753906 30.78125 58.347656 24.867188 57.59375 Z M 27.195312 63.59375 C 27.453125 63.632812 27.710938 63.675781 27.96875 63.710938 L 27.96875 70.953125 C 27.710938 70.914062 27.449219 70.875 27.195312 70.832031 Z M 23.1875 62.871094 C 23.445312 62.921875 23.699219 62.972656 23.960938 63.023438 L 23.960938 70.238281 C 23.699219 70.1875 23.445312 70.128906 23.1875 70.074219 Z M 19.179688 61.941406 C 19.433594 62.007812 19.691406 62.078125 19.949219 62.144531 L 19.949219 69.3125 C 19.6875 69.246094 19.429688 69.175781 19.179688 69.105469 Z M 15.171875 60.722656 C 15.425781 60.808594 15.683594 60.898438 15.941406 60.984375 L 15.941406 68.085938 C 15.675781 67.992188 15.417969 67.894531 15.171875 67.796875 Z M 13.613281 55.492188 C 13.351562 55.421875 13.09375 55.351562 12.84375 55.285156 L 12.84375 48.121094 C 13.097656 48.1875 13.351562 48.253906 13.613281 48.320312 Z M 17.621094 56.414062 C 17.359375 56.363281 17.105469 56.304688 16.851562 56.25 L 16.851562 49.046875 C 17.105469 49.097656 17.359375 49.152344 17.621094 49.199219 Z M 21.628906 57.128906 C 21.371094 57.085938 21.113281 57.050781 20.859375 57.007812 L 20.859375 49.769531 C 21.113281 49.808594 21.371094 49.851562 21.628906 49.890625 Z M 8.835938 46.898438 C 9.085938 46.984375 9.34375 47.074219 9.605469 47.160156 L 9.605469 54.265625 C 9.335938 54.167969 9.082031 54.070312 8.835938 53.976562 Z M 9.582031 63.675781 L 9.582031 58.03125 C 10.269531 58.503906 11.058594 58.953125 11.933594 59.378906 L 11.933594 66.25 C 10.1875 65.1875 9.582031 64.253906 9.582031 63.675781 Z M 70.773438 71.316406 C 64.664062 72.136719 57.78125 72.578125 50.609375 72.578125 C 43.734375 72.578125 37.121094 72.171875 31.207031 71.414062 L 31.207031 64.15625 C 37.285156 64.910156 43.957031 65.292969 50.609375 65.292969 C 57.539062 65.292969 64.496094 64.878906 70.773438 64.0625 Z M 74.78125 70.699219 C 74.527344 70.742188 74.273438 70.792969 74.011719 70.832031 L 74.011719 63.59375 C 74.269531 63.554688 74.527344 63.511719 74.78125 63.46875 Z M 78.789062 69.914062 C 78.539062 69.96875 78.277344 70.023438 78.019531 70.078125 L 78.019531 62.871094 C 78.277344 62.820312 78.535156 62.769531 78.789062 62.714844 Z M 82.796875 68.890625 C 82.546875 68.964844 82.292969 69.039062 82.027344 69.109375 L 82.027344 61.945312 C 82.289062 61.878906 82.546875 61.808594 82.796875 61.738281 Z M 86.804688 67.492188 C 86.5625 67.59375 86.304688 67.699219 86.035156 67.804688 L 86.035156 60.722656 C 86.296875 60.632812 86.554688 60.539062 86.804688 60.445312 Z M 104.457031 26.625 C 104.457031 27.769531 102.085938 30.296875 93.195312 32.492188 C 88.363281 33.683594 82.550781 34.550781 76.195312 35.042969 C 74.730469 35.15625 73.234375 35.25 71.714844 35.324219 C 69.015625 35.457031 66.242188 35.523438 63.429688 35.523438 C 61.902344 35.523438 60.390625 35.503906 58.898438 35.464844 C 56.375 35.398438 53.902344 35.277344 51.503906 35.105469 C 72.691406 34.8125 93.367188 30.660156 93.367188 22.980469 L 93.367188 20.796875 C 102.113281 22.980469 104.457031 25.480469 104.457031 26.625 Z M 107.695312 26.625 C 107.695312 22.566406 101.929688 19.496094 93.367188 17.457031 L 93.367188 12.460938 C 93.367188 4.488281 71.097656 0.320312 49.101562 0.320312 C 27.105469 0.320312 4.835938 4.488281 4.835938 12.460938 L 4.835938 22.980469 C 4.835938 26.019531 8.074219 28.503906 13.300781 30.417969 C 5.308594 32.457031 0.00390625 35.4375 0.00390625 39.328125 L 0.00390625 49.851562 C 0.00390625 52.453125 2.378906 54.648438 6.34375 56.429688 L 6.34375 63.675781 C 6.34375 64.085938 6.40625 64.488281 6.523438 64.878906 C 4.058594 66.398438 2.644531 68.164062 2.644531 70.171875 L 2.644531 80.691406 C 2.644531 88.664062 24.914062 92.832031 46.910156 92.832031 C 68.910156 92.832031 91.179688 88.664062 91.179688 80.691406 L 91.179688 70.171875 C 91.179688 69.757812 91.117188 69.355469 91 68.964844 C 93.460938 67.445312 94.875 65.679688 94.875 63.675781 L 94.875 53.152344 C 94.875 50.800781 92.9375 48.78125 89.636719 47.101562 C 100.210938 45.105469 107.695312 41.765625 107.695312 37.144531 L 107.695312 26.625 " fill-opacity="1" fill-rule="nonzero"/></g></g></g></g><path stroke-linecap="butt" transform="matrix(0.75, 0, 0, 0.75, 41.383537, 49.606296)" fill="none" stroke-linejoin="miter" d="M -0.000966247 0.498897 L 46.863621 0.498897 " stroke="#737373" stroke-width="1" stroke-opacity="1" stroke-miterlimit="4"/></svg>