<svg xmlns="http://www.w3.org/2000/svg" xmlns:xlink="http://www.w3.org/1999/xlink" width="102" zoomAndPan="magnify" viewBox="0 0 76.5 31.5" height="41" preserveAspectRatio="xMidYMid meet" version="1.0"><defs><clipPath id="0220c4ce24"><path d="M 0.351562 4 L 75.65625 4 L 75.65625 29.511719 L 0.351562 29.511719 Z M 0.351562 4 " clip-rule="nonzero"/></clipPath><clipPath id="9fabafb175"><path d="M 48.738281 9.207031 L 50.214844 9.207031 L 50.214844 10.683594 L 48.738281 10.683594 Z M 48.738281 9.207031 " clip-rule="nonzero"/></clipPath></defs><path fill="#000000" d="M 35.171875 23.597656 C 35.207031 23.632812 35.25 23.652344 35.296875 23.652344 C 35.339844 23.652344 35.382812 23.636719 35.417969 23.601562 C 35.484375 23.535156 35.488281 23.425781 35.421875 23.355469 C 34.90625 22.824219 34.550781 22.265625 34.304688 21.726562 C 34.191406 21.757812 34.082031 21.789062 33.96875 21.824219 C 34.230469 22.414062 34.613281 23.019531 35.171875 23.597656 Z M 35.171875 23.597656 " fill-opacity="1" fill-rule="nonzero"/><path fill="#000000" d="M 34.046875 23.398438 C 34.078125 23.460938 34.140625 23.5 34.203125 23.5 C 34.230469 23.5 34.253906 23.492188 34.277344 23.484375 C 34.363281 23.441406 34.402344 23.339844 34.359375 23.25 C 34.355469 23.238281 34.097656 22.675781 33.867188 21.851562 C 33.753906 21.886719 33.640625 21.917969 33.527344 21.949219 C 33.761719 22.777344 34.023438 23.34375 34.046875 23.398438 Z M 34.046875 23.398438 " fill-opacity="1" fill-rule="nonzero"/><path fill="#000000" d="M 33.109375 22.964844 C 33.132812 23.039062 33.199219 23.085938 33.273438 23.085938 C 33.289062 23.085938 33.308594 23.085938 33.324219 23.078125 C 33.414062 23.050781 33.464844 22.953125 33.4375 22.859375 C 33.433594 22.847656 33.335938 22.523438 33.230469 22.035156 C 33.121094 22.066406 33.007812 22.097656 32.894531 22.132812 C 32.996094 22.601562 33.09375 22.921875 33.109375 22.964844 Z M 33.109375 22.964844 " fill-opacity="1" fill-rule="nonzero"/><path fill="#000000" d="M 38.1875 20.515625 C 38.203125 20.554688 38.21875 20.589844 38.234375 20.625 L 36.914062 21.824219 C 36.683594 22.035156 36.570312 22.351562 36.621094 22.664062 L 37.34375 27.179688 C 37.414062 27.628906 37.800781 27.960938 38.25 27.960938 L 39.089844 27.960938 C 39.597656 27.960938 40.007812 27.546875 40.007812 27.03125 C 40.007812 26.519531 39.597656 26.101562 39.089844 26.101562 L 39.035156 26.101562 L 38.519531 22.867188 L 40.449219 21.113281 C 40.5 21.070312 40.542969 21.023438 40.582031 20.972656 L 41.933594 19.21875 C 40.742188 19.652344 39.492188 20.085938 38.1875 20.515625 Z M 38.1875 20.515625 " fill-opacity="1" fill-rule="nonzero"/><path fill="#000000" d="M 16.441406 3.847656 C 16.578125 4.164062 16.652344 4.496094 16.660156 4.84375 C 16.664062 5.1875 16.605469 5.523438 16.480469 5.847656 C 16.359375 6.167969 16.175781 6.457031 15.9375 6.707031 C 15.703125 6.957031 15.425781 7.152344 15.109375 7.292969 C 14.796875 7.429688 14.46875 7.503906 14.125 7.511719 C 13.78125 7.519531 13.449219 7.457031 13.132812 7.332031 C 12.8125 7.207031 12.527344 7.023438 12.28125 6.785156 C 12.03125 6.542969 11.839844 6.265625 11.703125 5.949219 C 11.5625 5.628906 11.492188 5.296875 11.484375 4.949219 C 11.476562 4.605469 11.535156 4.269531 11.660156 3.945312 C 11.785156 3.625 11.964844 3.335938 12.203125 3.085938 C 12.441406 2.835938 12.71875 2.640625 13.03125 2.503906 C 13.347656 2.363281 13.675781 2.289062 14.015625 2.28125 C 14.359375 2.273438 14.691406 2.335938 15.011719 2.460938 C 15.332031 2.585938 15.613281 2.769531 15.863281 3.007812 C 16.109375 3.25 16.304688 3.527344 16.441406 3.847656 Z M 16.441406 3.847656 " fill-opacity="1" fill-rule="nonzero"/><path fill="#000000" d="M 10.070312 13.761719 L 9.71875 9.351562 C 9.667969 8.695312 10.15625 8.117188 10.808594 8.066406 C 10.839844 8.0625 10.871094 8.058594 10.90625 8.058594 C 11.515625 8.058594 12.03125 8.542969 12.082031 9.164062 L 12.160156 10.15625 C 12.1875 10.097656 12.210938 10.035156 12.238281 9.976562 C 12.789062 8.910156 12.640625 7.464844 11.730469 7.023438 C 10.816406 6.582031 9.316406 6.820312 8.410156 8.371094 C 7.175781 10.507812 6.707031 11.96875 6.484375 14.558594 C 6.484375 14.5625 6.484375 14.566406 6.484375 14.570312 C 6.480469 14.566406 6.472656 14.5625 6.472656 14.5625 C 6.394531 14.515625 6.292969 14.539062 6.242188 14.617188 C 6.179688 14.714844 4.691406 17.042969 6.703125 22.007812 C 6.722656 22.0625 6.769531 22.101562 6.824219 22.113281 C 6.835938 22.117188 6.847656 22.117188 6.863281 22.117188 C 6.90625 22.117188 6.945312 22.101562 6.976562 22.070312 C 7.152344 21.914062 7.3125 21.753906 7.472656 21.597656 L 7.507812 21.984375 C 7.511719 22.050781 7.554688 22.105469 7.617188 22.128906 C 7.636719 22.140625 7.65625 22.144531 7.679688 22.144531 C 7.6875 22.144531 7.695312 22.140625 7.707031 22.136719 L 4.410156 25.546875 C 3.855469 26.121094 3.863281 27.039062 4.433594 27.601562 C 4.710938 27.878906 5.074219 28.015625 5.4375 28.015625 C 5.8125 28.015625 6.183594 27.867188 6.464844 27.578125 L 10.847656 23.046875 C 11.152344 22.730469 11.300781 22.289062 11.246094 21.851562 L 10.984375 19.769531 L 12.523438 21.121094 L 13.863281 26.941406 C 14.015625 27.613281 14.609375 28.066406 15.261719 28.066406 C 15.371094 28.066406 15.480469 28.054688 15.589844 28.027344 C 16.363281 27.847656 16.84375 27.066406 16.664062 26.285156 L 15.21875 20.003906 C 15.152344 19.703125 14.992188 19.433594 14.761719 19.234375 L 12.851562 17.558594 L 12.996094 17.429688 C 13.035156 17.394531 13.058594 17.34375 13.054688 17.292969 C 13.054688 17.242188 13.027344 17.191406 12.988281 17.160156 L 10.839844 15.488281 C 10.851562 15.351562 10.851562 15.269531 10.851562 15.25 C 10.851562 15.199219 10.828125 15.152344 10.792969 15.117188 C 10.753906 15.085938 10.703125 15.070312 10.652344 15.078125 C 10.605469 15.085938 10.5625 15.09375 10.519531 15.101562 C 10.542969 14.953125 10.566406 14.808594 10.59375 14.664062 L 10.574219 14.648438 C 10.28125 14.445312 10.097656 14.121094 10.070312 13.761719 Z M 10.492188 15.457031 C 10.414062 16.195312 9.925781 18.800781 6.929688 21.644531 C 5.382812 17.667969 6.191406 15.488281 6.457031 14.945312 C 6.882812 15.152344 8.132812 15.65625 9.933594 15.519531 C 9.78125 16.058594 9.050781 18.363281 7.5 19.722656 L 7.589844 19.828125 C 9.222656 18.398438 9.957031 15.953125 10.082031 15.507812 C 10.214844 15.492188 10.351562 15.476562 10.492188 15.457031 Z M 7.820312 21.609375 L 7.789062 21.273438 C 9.988281 18.953125 10.609375 16.886719 10.785156 15.886719 L 12.613281 17.308594 Z M 7.820312 21.609375 " fill-opacity="1" fill-rule="nonzero"/><path fill="#000000" d="M 14.085938 17.105469 L 13.722656 17.539062 L 14.601562 18.289062 L 15.042969 17.761719 C 15.003906 17.742188 14.96875 17.71875 14.929688 17.695312 Z M 14.085938 17.105469 " fill-opacity="1" fill-rule="nonzero"/><path fill="#000000" d="M 16.128906 15.945312 L 12.132812 13.152344 L 11.816406 9.183594 C 11.777344 8.671875 11.332031 8.289062 10.828125 8.332031 C 10.320312 8.371094 9.945312 8.820312 9.984375 9.332031 L 10.332031 13.738281 C 10.355469 14.015625 10.5 14.269531 10.726562 14.429688 L 15.082031 17.476562 C 15.242188 17.585938 15.425781 17.640625 15.605469 17.640625 C 15.898438 17.640625 16.183594 17.5 16.363281 17.238281 C 16.652344 16.816406 16.546875 16.238281 16.128906 15.945312 Z M 16.128906 15.945312 " fill-opacity="1" fill-rule="nonzero"/><g clip-path="url(#0220c4ce24)"><path fill="#000000" d="M 75.082031 28.277344 L 73.5625 27.816406 L 64.394531 28.402344 L 53.503906 28.226562 L 35.421875 28.378906 L 32.6875 27.816406 L 31.015625 27.203125 L 29.046875 27.554688 L 24.773438 25.339844 L 25.050781 25.03125 C 25.464844 24.566406 25.957031 24.199219 26.519531 23.9375 C 26.851562 23.785156 27.257812 23.597656 27.71875 23.386719 L 27.566406 23.042969 C 27.699219 23.007812 27.835938 22.976562 27.96875 22.945312 C 39.957031 20.027344 48.644531 16.226562 53.863281 13.519531 C 57.988281 11.382812 60.644531 9.578125 61.847656 8.707031 C 61.914062 8.847656 62.011719 8.972656 62.128906 9.074219 C 60.914062 9.957031 58.226562 11.78125 54.074219 13.933594 C 51.277344 15.382812 47.488281 17.148438 42.734375 18.921875 C 42.613281 19.191406 42.480469 19.453125 42.335938 19.707031 L 42.878906 20.992188 L 42.273438 22.640625 C 42.195312 22.847656 42.199219 23.078125 42.273438 23.289062 L 43.78125 27.355469 C 43.914062 27.71875 44.257812 27.960938 44.640625 27.960938 L 45.601562 27.960938 C 46.109375 27.960938 46.523438 27.546875 46.523438 27.03125 C 46.523438 26.519531 46.109375 26.101562 45.601562 26.101562 L 45.28125 26.101562 L 44.117188 22.960938 L 44.941406 20.714844 C 44.949219 20.699219 44.953125 20.683594 44.957031 20.664062 L 45.433594 19.101562 C 45.566406 19.140625 45.675781 19.171875 45.75 19.195312 C 48.792969 20.03125 55.550781 21.246094 58.777344 21.21875 L 59.933594 24.199219 C 59.695312 24.289062 59.496094 24.472656 59.398438 24.730469 C 59.214844 25.210938 59.453125 25.75 59.925781 25.933594 L 60.457031 26.140625 C 60.546875 26.175781 60.640625 26.195312 60.734375 26.199219 C 60.742188 26.210938 60.746094 26.222656 60.753906 26.230469 L 61.773438 27.6875 C 61.945312 27.933594 62.226562 28.082031 62.523438 28.082031 L 63.226562 28.082031 C 63.734375 28.082031 64.144531 27.664062 64.144531 27.148438 C 64.144531 26.636719 63.734375 26.21875 63.226562 26.21875 L 63 26.21875 L 62.339844 25.277344 L 62.140625 24.632812 L 62.234375 24.445312 L 59.082031 16.558594 L 59.617188 16.339844 L 62.578125 23.753906 L 63.066406 22.78125 C 63.234375 22.445312 63.1875 22.042969 62.945312 21.757812 L 61.34375 19.863281 C 62.050781 18.90625 62.3125 18.164062 62.539062 17.511719 C 62.605469 17.484375 62.671875 17.449219 62.734375 17.402344 L 63.402344 16.847656 C 63.488281 16.777344 63.59375 16.730469 63.703125 16.710938 L 66.125 16.273438 C 66.300781 16.242188 66.484375 16.28125 66.625 16.386719 L 69.585938 19.257812 C 69.746094 19.375 69.84375 19.554688 69.855469 19.75 C 69.871094 19.964844 69.984375 20.15625 70.164062 20.269531 L 71.089844 20.847656 C 71.320312 20.988281 71.609375 20.976562 71.824219 20.816406 L 72.441406 20.355469 C 72.636719 20.207031 72.738281 19.960938 72.699219 19.714844 L 72.058594 16.289062 C 72.046875 16.226562 72.046875 16.160156 72.054688 16.097656 L 72.347656 13.773438 C 72.738281 13.515625 73.5 12.90625 74.035156 11.824219 C 74.707031 10.480469 75.128906 8.121094 73.332031 4.535156 C 73.289062 4.449219 73.191406 4.414062 73.105469 4.453125 C 73.023438 4.492188 72.984375 4.59375 73.019531 4.679688 C 73.023438 4.691406 73.554688 5.984375 73.574219 7.59375 C 73.597656 9.273438 73.078125 10.652344 72.039062 11.710938 L 71.785156 11.242188 C 71.710938 11.105469 71.59375 11.003906 71.457031 10.945312 L 71.34375 9.882812 C 71.320312 9.625 71.097656 9.511719 70.894531 9.652344 L 70.554688 9.882812 C 70.480469 9.933594 70.417969 10.007812 70.378906 10.097656 L 70.277344 10.320312 L 69.914062 9.722656 C 69.800781 9.527344 69.5625 9.511719 69.429688 9.6875 L 69.296875 9.855469 C 69.015625 9.140625 68.875 8.34375 68.886719 7.460938 C 68.90625 5.851562 69.4375 4.558594 69.441406 4.546875 C 69.476562 4.460938 69.441406 4.359375 69.355469 4.320312 C 69.269531 4.28125 69.171875 4.316406 69.128906 4.398438 C 67.847656 6.953125 67.695312 8.882812 67.953125 10.269531 L 66.238281 9.945312 C 66.160156 9.929688 66.089844 9.902344 66.023438 9.863281 L 63.875 8.574219 C 63.914062 8.464844 63.933594 8.347656 63.933594 8.226562 C 63.933594 7.617188 63.441406 7.117188 62.835938 7.117188 C 62.425781 7.117188 62.066406 7.347656 61.878906 7.6875 C 59.699219 6.746094 55.953125 5.558594 52.898438 6.785156 C 48.769531 8.445312 44.476562 7.601562 42.734375 7.953125 C 41.855469 8.132812 40.910156 7.90625 39.957031 7.902344 C 38.773438 7.761719 37.71875 7.972656 36.804688 8.539062 C 34.71875 9.828125 33.449219 12.914062 33.03125 17.710938 C 32.148438 18.671875 32.109375 20.167969 32.199219 21.121094 C 30.625 21.558594 28.984375 21.984375 27.277344 22.394531 L 27.152344 22.113281 C 26.683594 22.328125 26.277344 22.515625 25.945312 22.671875 C 25.210938 23.011719 24.566406 23.492188 24.023438 24.097656 L 23.757812 24.394531 L 22.511719 22.703125 L 20.8125 15.355469 L 22.382812 15.136719 L 22.226562 13.984375 L 20.546875 14.21875 L 20.417969 13.660156 L 19.074219 13.976562 L 19.175781 14.410156 L 17.171875 14.691406 C 16.628906 14.769531 16.117188 14.984375 15.6875 15.3125 L 16.28125 15.726562 C 16.417969 15.820312 16.53125 15.945312 16.617188 16.085938 C 16.835938 15.960938 17.074219 15.878906 17.328125 15.84375 L 19.4375 15.546875 L 21.203125 23.164062 L 21.234375 23.304688 L 21.320312 23.421875 L 22.816406 25.453125 L 21.960938 26.414062 L 22.988281 27.347656 L 23.851562 26.375 L 27.183594 27.578125 L 25.75 27.484375 L 23.324219 28.160156 L 20.378906 28.429688 L 18.289062 27.828125 L 15.351562 28.519531 L 12.324219 28.277344 L 9.136719 27.046875 L 6.132812 28.402344 L 2.601562 28.582031 L 0.472656 29.503906 L 75.535156 29.503906 Z M 68.605469 6.589844 C 68.402344 8.398438 68.664062 10.9375 71.136719 12.621094 C 71.148438 12.691406 71.15625 12.875 70.96875 13.175781 C 70.765625 13.507812 70.554688 13.480469 70.5 13.46875 C 70.375 13.398438 69.363281 12.8125 68.722656 11.515625 C 68.054688 10.160156 68.019531 8.480469 68.605469 6.589844 Z M 73.855469 6.722656 C 74.441406 8.617188 74.40625 10.292969 73.738281 11.652344 C 73.339844 12.460938 72.792969 12.992188 72.410156 13.296875 L 72.472656 12.785156 C 72.492188 12.644531 72.464844 12.503906 72.398438 12.382812 L 72.207031 12.03125 C 73.859375 10.398438 74.03125 8.285156 73.855469 6.722656 Z M 71.527344 15.148438 C 71.40625 15.34375 71.15625 15.40625 70.960938 15.285156 C 70.769531 15.164062 70.707031 14.910156 70.828125 14.714844 C 70.949219 14.519531 71.199219 14.457031 71.394531 14.578125 C 71.585938 14.699219 71.648438 14.953125 71.527344 15.148438 Z M 33.1875 18.738281 C 33.109375 19.449219 33.160156 20.164062 33.269531 20.816406 C 33.199219 20.835938 33.125 20.859375 33.054688 20.878906 C 32.988281 20.179688 32.992188 19.402344 33.1875 18.738281 Z M 43.082031 14.089844 L 43.65625 14.066406 C 43.699219 15.25 43.5625 16.402344 43.257812 17.484375 C 43.03125 17.570312 42.804688 17.65625 42.578125 17.742188 C 42.953125 16.601562 43.128906 15.363281 43.082031 14.089844 Z M 62.835938 7.46875 C 63.25 7.46875 63.589844 7.808594 63.589844 8.226562 C 63.589844 8.644531 63.25 8.988281 62.835938 8.988281 C 62.421875 8.988281 62.085938 8.644531 62.085938 8.226562 C 62.085938 7.808594 62.421875 7.46875 62.835938 7.46875 Z M 36.859375 9.640625 C 36.382812 10.640625 35.609375 13.003906 36.804688 16.234375 C 37.226562 17.367188 37.617188 17.917969 37.988281 18.125 C 37.984375 18.242188 37.996094 18.363281 38.019531 18.484375 C 38.078125 18.742188 38.195312 18.96875 38.355469 19.152344 L 38.324219 19.246094 C 36.929688 19.714844 35.464844 20.175781 33.929688 20.625 C 33.628906 19.285156 33.890625 18.242188 33.894531 18.226562 C 33.898438 18.210938 33.902344 18.191406 33.898438 18.175781 C 33.910156 18.140625 33.921875 18.105469 33.921875 18.066406 C 34.257812 13.855469 35.269531 10.960938 36.859375 9.640625 Z M 32.890625 18.535156 C 32.636719 19.300781 32.632812 20.191406 32.714844 20.976562 C 32.65625 20.992188 32.597656 21.007812 32.542969 21.023438 C 32.484375 20.320312 32.503906 19.335938 32.890625 18.535156 Z M 23.417969 25.410156 C 23.417969 25.210938 23.578125 25.050781 23.773438 25.050781 C 23.96875 25.050781 24.128906 25.210938 24.128906 25.410156 C 24.128906 25.609375 23.96875 25.769531 23.773438 25.769531 C 23.578125 25.769531 23.417969 25.609375 23.417969 25.410156 Z M 23.417969 25.410156 " fill-opacity="1" fill-rule="nonzero"/></g><g clip-path="url(#9fabafb175)"><path fill="#000000" d="M 49.476562 9.207031 C 49.882812 9.207031 50.214844 9.539062 50.214844 9.945312 C 50.214844 10.355469 49.882812 10.683594 49.476562 10.683594 C 49.066406 10.683594 48.738281 10.355469 48.738281 9.945312 C 48.738281 9.539062 49.066406 9.207031 49.476562 9.207031 Z M 49.476562 9.207031 " fill-opacity="1" fill-rule="evenodd"/></g></svg>