<svg xmlns="http://www.w3.org/2000/svg" xmlns:xlink="http://www.w3.org/1999/xlink" width="102" zoomAndPan="magnify" viewBox="0 0 76.5 50.999998" height="68" preserveAspectRatio="xMidYMid meet" version="1.0"><defs><filter x="0%" y="0%" width="100%" height="100%" id="1eb1f1a632"><feColorMatrix values="0 0 0 0 1 0 0 0 0 1 0 0 0 0 1 0 0 0 1 0" color-interpolation-filters="sRGB"/></filter><clipPath id="19e0f8cbfb"><path d="M 0 1 L 76.003906 1 L 76.003906 50 L 0 50 Z M 0 1 " clip-rule="nonzero"/></clipPath><mask id="8e4947baa1"><g filter="url(#1eb1f1a632)"><rect x="-7.65" width="91.8" fill="#000000" y="-5.1" height="61.199998" fill-opacity="0.53"/></g></mask><clipPath id="0723222f0e"><path d="M 0 0.796875 L 76 0.796875 L 76 48.484375 L 0 48.484375 Z M 0 0.796875 " clip-rule="nonzero"/></clipPath><clipPath id="21f11b6a0b"><rect x="0" width="77" y="0" height="49"/></clipPath><clipPath id="a39f2fd22c"><path d="M 0 44 L 76.003906 44 L 76.003906 50.832031 L 0 50.832031 Z M 0 44 " clip-rule="nonzero"/></clipPath></defs><g clip-path="url(#19e0f8cbfb)"><g mask="url(#8e4947baa1)"><g transform="matrix(1, 0, 0, 1, 0, 1)"><g clip-path="url(#21f11b6a0b)"><path fill="#000000" d="M 34.925781 36.597656 C 34.796875 36.402344 34.617188 36.289062 34.386719 36.257812 L 28.21875 35.433594 C 28.285156 35.222656 28.332031 35.007812 28.359375 34.789062 C 28.378906 34.644531 28.390625 34.5 28.394531 34.355469 L 34.535156 35.175781 C 34.570312 35.179688 34.601562 35.183594 34.636719 35.183594 C 34.847656 35.183594 35.03125 35.109375 35.179688 34.957031 C 35.332031 34.808594 35.40625 34.625 35.410156 34.414062 C 35.425781 32.425781 34.945312 30.566406 33.972656 28.835938 C 33.917969 28.738281 33.84375 28.65625 33.753906 28.589844 C 33.664062 28.527344 33.5625 28.480469 33.453125 28.457031 C 33.34375 28.4375 33.234375 28.4375 33.128906 28.460938 C 33.019531 28.488281 32.917969 28.535156 32.832031 28.601562 L 27.925781 32.371094 C 27.753906 32.046875 27.542969 31.753906 27.289062 31.484375 L 32.191406 27.71875 C 32.277344 27.652344 32.347656 27.570312 32.398438 27.472656 C 32.453125 27.375 32.484375 27.269531 32.492188 27.160156 C 32.5 27.046875 32.484375 26.941406 32.445312 26.835938 C 32.410156 26.730469 32.351562 26.640625 32.273438 26.5625 C 30.882812 25.117188 29.222656 24.121094 27.296875 23.582031 C 27.1875 23.550781 27.078125 23.546875 26.96875 23.5625 C 26.859375 23.578125 26.757812 23.621094 26.664062 23.679688 C 26.570312 23.742188 26.492188 23.820312 26.433594 23.917969 C 26.375 24.011719 26.339844 24.117188 26.324219 24.226562 L 25.507812 30.398438 C 25.316406 30.34375 25.125 30.300781 24.929688 30.277344 C 24.761719 30.253906 24.597656 30.242188 24.429688 30.242188 L 25.25 24.050781 C 25.265625 23.941406 25.257812 23.832031 25.226562 23.726562 C 25.195312 23.621094 25.140625 23.523438 25.070312 23.441406 C 25 23.355469 24.914062 23.292969 24.8125 23.246094 C 24.714844 23.199219 24.609375 23.171875 24.5 23.171875 C 22.46875 23.132812 20.570312 23.621094 18.808594 24.632812 C 18.710938 24.6875 18.628906 24.761719 18.566406 24.851562 C 18.5 24.941406 18.457031 25.042969 18.433594 25.152344 C 18.410156 25.261719 18.414062 25.375 18.4375 25.484375 C 18.464844 25.59375 18.511719 25.691406 18.578125 25.78125 L 22.390625 30.789062 C 22.074219 30.976562 21.789062 31.199219 21.53125 31.464844 L 17.703125 26.429688 C 17.636719 26.339844 17.554688 26.269531 17.457031 26.21875 C 17.359375 26.164062 17.253906 26.136719 17.144531 26.128906 C 17.035156 26.117188 16.925781 26.132812 16.824219 26.171875 C 16.71875 26.210938 16.628906 26.269531 16.550781 26.347656 C 15.082031 27.78125 14.089844 29.496094 13.570312 31.484375 C 13.542969 31.59375 13.535156 31.703125 13.554688 31.8125 C 13.574219 31.921875 13.613281 32.023438 13.675781 32.117188 C 13.738281 32.207031 13.816406 32.285156 13.910156 32.34375 C 14.003906 32.402344 14.105469 32.4375 14.214844 32.453125 L 20.519531 33.296875 C 20.433594 33.65625 20.394531 34.019531 20.40625 34.386719 L 14.078125 33.539062 C 13.96875 33.523438 13.859375 33.53125 13.753906 33.5625 C 13.644531 33.597656 13.550781 33.648438 13.46875 33.722656 C 13.382812 33.796875 13.320312 33.882812 13.273438 33.984375 C 13.226562 34.085938 13.203125 34.195312 13.203125 34.304688 C 13.195312 36.359375 13.714844 38.265625 14.757812 40.03125 C 14.8125 40.125 14.886719 40.207031 14.976562 40.269531 C 15.066406 40.332031 15.167969 40.375 15.273438 40.394531 C 15.382812 40.417969 15.492188 40.414062 15.597656 40.390625 C 15.707031 40.363281 15.804688 40.316406 15.890625 40.25 L 20.980469 36.339844 C 21.167969 36.652344 21.398438 36.9375 21.664062 37.1875 L 16.574219 41.101562 C 16.484375 41.171875 16.414062 41.253906 16.359375 41.355469 C 16.308594 41.453125 16.277344 41.558594 16.269531 41.671875 C 16.265625 41.78125 16.28125 41.890625 16.320312 41.996094 C 16.359375 42.101562 16.417969 42.195312 16.5 42.273438 C 17.933594 43.699219 19.628906 44.660156 21.582031 45.15625 C 21.691406 45.183594 21.796875 45.1875 21.90625 45.167969 C 22.015625 45.148438 22.113281 45.109375 22.207031 45.046875 C 22.296875 44.984375 22.371094 44.90625 22.429688 44.8125 C 22.488281 44.71875 22.523438 44.613281 22.539062 44.503906 L 23.382812 38.144531 C 23.542969 38.1875 23.707031 38.222656 23.871094 38.242188 C 24.046875 38.265625 24.226562 38.277344 24.402344 38.277344 C 24.421875 38.277344 24.441406 38.277344 24.460938 38.277344 L 23.621094 44.617188 C 23.605469 44.726562 23.617188 44.835938 23.648438 44.945312 C 23.679688 45.050781 23.734375 45.148438 23.804688 45.230469 C 23.878906 45.316406 23.964844 45.382812 24.066406 45.429688 C 24.167969 45.472656 24.277344 45.496094 24.386719 45.496094 L 24.390625 45.496094 C 26.378906 45.484375 28.230469 44.96875 29.941406 43.953125 C 30.035156 43.894531 30.117188 43.820312 30.179688 43.730469 C 30.246094 43.640625 30.285156 43.539062 30.308594 43.429688 C 30.328125 43.320312 30.328125 43.214844 30.300781 43.105469 C 30.277344 42.996094 30.230469 42.898438 30.164062 42.808594 L 26.332031 37.773438 C 26.652344 37.59375 26.941406 37.375 27.203125 37.117188 L 31.015625 42.132812 C 31.160156 42.320312 31.347656 42.417969 31.582031 42.433594 C 31.597656 42.4375 31.613281 42.4375 31.628906 42.4375 C 31.84375 42.4375 32.027344 42.359375 32.179688 42.207031 C 33.570312 40.804688 34.519531 39.144531 35.03125 37.230469 C 35.089844 37.003906 35.054688 36.792969 34.925781 36.597656 Z M 33.03125 30.40625 C 33.472656 31.394531 33.742188 32.433594 33.832031 33.515625 L 29.710938 32.960938 Z M 15.328125 31.035156 C 15.71875 29.953125 16.289062 28.976562 17.03125 28.101562 L 19.707031 31.621094 Z M 15.675781 38.460938 C 15.183594 37.425781 14.890625 36.339844 14.785156 35.203125 L 19.152344 35.785156 Z M 21.125 43.394531 C 20.074219 43.023438 19.117188 42.480469 18.25 41.769531 L 21.695312 39.125 Z M 20.367188 25.578125 C 21.398438 25.109375 22.472656 24.832031 23.597656 24.75 L 23.027344 29.070312 Z M 28.382812 43.023438 C 27.394531 43.492188 26.359375 43.78125 25.277344 43.894531 L 25.835938 39.679688 Z M 26.832031 34.585938 C 26.804688 34.773438 26.761719 34.953125 26.695312 35.132812 C 26.628906 35.308594 26.542969 35.476562 26.4375 35.632812 C 26.332031 35.789062 26.210938 35.933594 26.074219 36.0625 C 25.9375 36.191406 25.785156 36.300781 25.625 36.394531 C 25.460938 36.488281 25.289062 36.566406 25.109375 36.621094 C 24.929688 36.671875 24.746094 36.707031 24.558594 36.71875 C 24.371094 36.730469 24.183594 36.722656 24 36.691406 C 23.816406 36.660156 23.636719 36.609375 23.460938 36.535156 C 23.289062 36.464844 23.125 36.371094 22.972656 36.261719 C 22.820312 36.152344 22.683594 36.023438 22.558594 35.882812 C 22.433594 35.738281 22.328125 35.585938 22.242188 35.417969 C 22.152344 35.25 22.085938 35.078125 22.035156 34.894531 C 21.988281 34.710938 21.960938 34.527344 21.953125 34.335938 C 21.949219 34.148438 21.964844 33.960938 22 33.777344 C 22.039062 33.589844 22.09375 33.410156 22.171875 33.238281 C 22.25 33.066406 22.347656 32.90625 22.460938 32.757812 C 22.574219 32.609375 22.707031 32.472656 22.851562 32.351562 C 22.996094 32.234375 23.152344 32.132812 23.324219 32.046875 C 23.492188 31.964844 23.667969 31.902344 23.851562 31.859375 C 24.03125 31.816406 24.21875 31.796875 24.40625 31.796875 C 24.59375 31.796875 24.777344 31.816406 24.960938 31.859375 C 25.144531 31.90625 25.320312 31.96875 25.488281 32.050781 C 25.65625 32.136719 25.8125 32.238281 25.960938 32.359375 C 26.105469 32.476562 26.234375 32.613281 26.347656 32.761719 C 26.757812 33.304688 26.917969 33.910156 26.832031 34.585938 Z M 27.167969 29.625 L 27.734375 25.359375 C 28.761719 25.757812 29.695312 26.316406 30.53125 27.039062 Z M 31.683594 40.445312 L 29.15625 37.128906 L 33.269531 37.679688 C 32.894531 38.691406 32.367188 39.613281 31.683594 40.445312 Z M 31.683594 40.445312 " fill-opacity="1" fill-rule="nonzero"/><g clip-path="url(#0723222f0e)"><path fill="#000000" d="M 75.132812 46.921875 L 64.601562 46.921875 L 65.339844 41.339844 L 73.253906 42.398438 C 73.554688 42.445312 73.851562 42.429688 74.144531 42.351562 C 74.4375 42.277344 74.703125 42.148438 74.945312 41.964844 C 75.1875 41.78125 75.386719 41.558594 75.539062 41.296875 C 75.691406 41.035156 75.789062 40.75 75.828125 40.449219 C 75.867188 40.148438 75.847656 39.847656 75.769531 39.554688 C 75.691406 39.261719 75.558594 38.996094 75.371094 38.753906 C 75.1875 38.511719 74.960938 38.316406 74.699219 38.167969 C 74.433594 38.019531 74.152344 37.925781 73.851562 37.890625 L 52.703125 35.054688 L 53.5 29.039062 L 53.710938 29.066406 C 54.007812 29.109375 54.300781 29.089844 54.589844 29.011719 C 54.878906 28.933594 55.144531 28.804688 55.382812 28.621094 C 55.621094 28.4375 55.816406 28.214844 55.964844 27.953125 C 56.117188 27.691406 56.210938 27.414062 56.25 27.113281 C 56.289062 26.816406 56.273438 26.519531 56.195312 26.226562 C 56.117188 25.9375 55.988281 25.671875 55.804688 25.429688 C 55.625 25.191406 55.402344 24.996094 55.144531 24.84375 C 54.882812 24.691406 54.605469 24.597656 54.308594 24.558594 L 54.097656 24.53125 L 55.09375 17.011719 L 55.308594 17.039062 C 55.605469 17.085938 55.902344 17.070312 56.195312 16.996094 C 56.492188 16.917969 56.757812 16.789062 57 16.605469 C 57.242188 16.425781 57.441406 16.199219 57.59375 15.9375 C 57.746094 15.675781 57.84375 15.390625 57.882812 15.089844 C 57.921875 14.789062 57.902344 14.488281 57.824219 14.195312 C 57.746094 13.902344 57.613281 13.632812 57.425781 13.394531 C 57.238281 13.152344 57.015625 12.957031 56.75 12.808594 C 56.488281 12.65625 56.203125 12.566406 55.902344 12.53125 L 55.695312 12.5 L 56.035156 9.9375 C 56.078125 9.582031 56.054688 9.234375 55.960938 8.886719 C 55.867188 8.542969 55.710938 8.230469 55.496094 7.945312 C 55.277344 7.664062 55.015625 7.433594 54.707031 7.253906 C 54.402344 7.074219 54.070312 6.960938 53.71875 6.914062 C 53.367188 6.867188 53.019531 6.890625 52.675781 6.980469 C 52.332031 7.074219 52.019531 7.226562 51.738281 7.441406 C 51.453125 7.660156 51.222656 7.921875 51.042969 8.230469 C 50.863281 8.535156 50.75 8.867188 50.699219 9.222656 L 50.359375 11.789062 L 44.925781 11.058594 L 45.265625 8.496094 C 45.308594 8.140625 45.285156 7.789062 45.191406 7.445312 C 45.097656 7.101562 44.941406 6.785156 44.726562 6.503906 C 44.507812 6.21875 44.246094 5.988281 43.9375 5.8125 C 43.632812 5.632812 43.300781 5.519531 42.949219 5.472656 C 42.597656 5.425781 42.25 5.445312 41.90625 5.539062 C 41.5625 5.628906 41.25 5.785156 40.96875 6 C 40.683594 6.214844 40.453125 6.476562 40.273438 6.785156 C 40.09375 7.09375 39.980469 7.425781 39.929688 7.78125 L 39.589844 10.34375 L 33.773438 9.566406 L 34.113281 7 C 34.160156 6.644531 34.136719 6.292969 34.046875 5.945312 C 33.953125 5.601562 33.800781 5.285156 33.582031 5 C 33.367188 4.714844 33.105469 4.480469 32.796875 4.300781 C 32.488281 4.121094 32.15625 4.007812 31.800781 3.960938 C 31.449219 3.914062 31.097656 3.933594 30.753906 4.027344 C 30.410156 4.121094 30.09375 4.273438 29.8125 4.492188 C 29.527344 4.710938 29.296875 4.976562 29.117188 5.285156 C 28.9375 5.597656 28.828125 5.929688 28.777344 6.285156 L 28.4375 8.851562 L 22.621094 8.070312 L 22.964844 5.503906 C 23.007812 5.152344 22.984375 4.800781 22.890625 4.457031 C 22.796875 4.109375 22.640625 3.796875 22.425781 3.515625 C 22.207031 3.230469 21.945312 3 21.636719 2.820312 C 21.332031 2.644531 21 2.53125 20.648438 2.484375 C 20.296875 2.433594 19.949219 2.457031 19.605469 2.546875 C 19.261719 2.640625 18.949219 2.792969 18.664062 3.011719 C 18.382812 3.226562 18.152344 3.488281 17.972656 3.796875 C 17.792969 4.105469 17.675781 4.4375 17.628906 4.789062 L 17.289062 7.355469 L 11.472656 6.574219 L 11.8125 4.011719 C 11.855469 3.65625 11.832031 3.304688 11.738281 2.960938 C 11.644531 2.617188 11.492188 2.304688 11.273438 2.019531 C 11.058594 1.738281 10.796875 1.503906 10.488281 1.328125 C 10.179688 1.148438 9.851562 1.035156 9.496094 0.988281 C 9.144531 0.941406 8.796875 0.964844 8.453125 1.054688 C 8.109375 1.144531 7.796875 1.300781 7.515625 1.515625 C 7.230469 1.730469 7 1.992188 6.820312 2.300781 C 6.640625 2.609375 6.527344 2.941406 6.476562 3.296875 L 6.136719 5.859375 L 5.726562 5.804688 C 5.433594 5.773438 5.144531 5.792969 4.855469 5.875 C 4.570312 5.957031 4.3125 6.085938 4.078125 6.269531 C 3.84375 6.453125 3.652344 6.675781 3.503906 6.933594 C 3.355469 7.191406 3.261719 7.46875 3.222656 7.765625 C 3.183594 8.0625 3.203125 8.355469 3.277344 8.640625 C 3.351562 8.929688 3.480469 9.195312 3.660156 9.433594 C 3.835938 9.671875 4.054688 9.867188 4.308594 10.019531 C 4.5625 10.171875 4.835938 10.269531 5.128906 10.316406 L 5.539062 10.371094 L 4.542969 17.890625 L 4.132812 17.835938 C 3.832031 17.789062 3.539062 17.804688 3.242188 17.878906 C 2.949219 17.953125 2.683594 18.082031 2.441406 18.265625 C 2.199219 18.449219 2 18.671875 1.847656 18.9375 C 1.695312 19.199219 1.597656 19.480469 1.558594 19.785156 C 1.519531 20.085938 1.539062 20.382812 1.617188 20.679688 C 1.695312 20.972656 1.828125 21.238281 2.015625 21.480469 C 2.199219 21.722656 2.425781 21.914062 2.6875 22.066406 C 2.953125 22.214844 3.234375 22.308594 3.535156 22.34375 L 3.945312 22.398438 L 3.148438 28.414062 L 2.738281 28.359375 C 2.4375 28.3125 2.140625 28.328125 1.847656 28.402344 C 1.554688 28.480469 1.285156 28.609375 1.042969 28.792969 C 0.800781 28.976562 0.605469 29.199219 0.453125 29.460938 C 0.300781 29.722656 0.203125 30.007812 0.164062 30.308594 C 0.121094 30.609375 0.140625 30.910156 0.222656 31.203125 C 0.300781 31.496094 0.433594 31.765625 0.617188 32.003906 C 0.804688 32.246094 1.03125 32.441406 1.292969 32.589844 C 1.558594 32.742188 1.839844 32.832031 2.140625 32.867188 L 10.371094 33.972656 C 10.339844 35.3125 10.496094 36.632812 10.839844 37.929688 C 11.183594 39.226562 11.703125 40.449219 12.394531 41.597656 C 13.085938 42.746094 13.925781 43.773438 14.910156 44.675781 C 15.894531 45.582031 16.988281 46.332031 18.1875 46.921875 L 1.519531 46.921875 C 1.304688 46.921875 1.121094 46.996094 0.972656 47.148438 C 0.820312 47.300781 0.746094 47.484375 0.746094 47.699219 C 0.746094 47.914062 0.820312 48.097656 0.972656 48.25 C 1.121094 48.402344 1.304688 48.476562 1.519531 48.476562 L 75.132812 48.476562 C 75.34375 48.476562 75.527344 48.402344 75.675781 48.25 C 75.828125 48.097656 75.902344 47.914062 75.902344 47.699219 C 75.902344 47.484375 75.828125 47.300781 75.675781 47.148438 C 75.527344 46.996094 75.34375 46.921875 75.132812 46.921875 Z M 63.039062 46.921875 L 61.554688 46.921875 L 62.347656 40.9375 L 63.808594 41.132812 Z M 73.648438 39.429688 C 73.84375 39.453125 74.003906 39.546875 74.125 39.703125 C 74.25 39.863281 74.296875 40.042969 74.269531 40.242188 C 74.242188 40.4375 74.152344 40.597656 73.992188 40.71875 C 73.832031 40.839844 73.65625 40.886719 73.457031 40.859375 L 38.171875 36.128906 C 38.234375 35.652344 38.273438 35.171875 38.285156 34.691406 Z M 38.242188 33.117188 C 38.226562 32.953125 38.214844 32.789062 38.195312 32.625 L 38.929688 27.085938 L 41.199219 27.390625 L 40.402344 33.40625 Z M 37.148438 28.742188 C 36.839844 28.03125 36.476562 27.351562 36.058594 26.703125 L 37.394531 26.882812 Z M 41.933594 33.613281 L 42.730469 27.597656 L 48.164062 28.324219 L 47.367188 34.339844 Z M 48.898438 34.546875 L 49.699219 28.53125 L 51.96875 28.835938 L 51.171875 34.847656 Z M 54.105469 26.097656 C 54.300781 26.125 54.460938 26.214844 54.582031 26.375 C 54.707031 26.53125 54.753906 26.710938 54.726562 26.910156 C 54.699219 27.109375 54.609375 27.265625 54.449219 27.386719 C 54.289062 27.507812 54.113281 27.554688 53.914062 27.527344 L 34.730469 24.957031 C 34.183594 24.339844 33.589844 23.773438 32.945312 23.265625 Z M 19.496094 19.894531 L 17.226562 19.589844 L 18.222656 12.070312 L 20.492188 12.375 Z M 22.90625 20.351562 L 21.027344 20.097656 L 22.023438 12.578125 L 27.839844 13.359375 L 26.890625 20.515625 C 26.652344 20.472656 26.414062 20.433594 26.175781 20.402344 C 25.085938 20.253906 24 20.238281 22.90625 20.351562 Z M 30.648438 21.386719 L 29.347656 21.210938 C 29.035156 21.09375 28.722656 20.984375 28.402344 20.886719 L 29.371094 13.5625 L 31.644531 13.867188 Z M 32.179688 21.59375 L 33.175781 14.074219 L 38.992188 14.851562 L 37.992188 22.371094 Z M 39.527344 22.578125 L 40.523438 15.058594 L 42.796875 15.363281 L 41.796875 22.882812 Z M 43.328125 23.085938 L 44.328125 15.566406 L 49.761719 16.296875 L 48.761719 23.816406 Z M 50.296875 24.019531 L 51.292969 16.5 L 53.5625 16.804688 L 52.566406 24.324219 Z M 52.230469 9.425781 C 52.25 9.273438 52.300781 9.132812 52.375 9 C 52.453125 8.867188 52.550781 8.757812 52.671875 8.664062 C 52.789062 8.570312 52.925781 8.503906 53.070312 8.464844 C 53.21875 8.425781 53.367188 8.414062 53.519531 8.4375 C 53.667969 8.457031 53.808594 8.503906 53.941406 8.582031 C 54.074219 8.65625 54.183594 8.757812 54.277344 8.878906 C 54.367188 9 54.433594 9.132812 54.472656 9.28125 C 54.511719 9.429688 54.523438 9.578125 54.503906 9.730469 L 54.164062 12.296875 L 51.890625 11.992188 Z M 41.460938 7.984375 C 41.480469 7.832031 41.53125 7.691406 41.605469 7.558594 C 41.683594 7.425781 41.78125 7.3125 41.902344 7.222656 C 42.023438 7.128906 42.15625 7.0625 42.300781 7.023438 C 42.449219 6.984375 42.597656 6.976562 42.75 6.996094 C 42.898438 7.015625 43.039062 7.0625 43.171875 7.140625 C 43.300781 7.214844 43.414062 7.316406 43.507812 7.4375 C 43.597656 7.558594 43.664062 7.691406 43.703125 7.839844 C 43.742188 7.988281 43.753906 8.136719 43.734375 8.289062 L 43.394531 10.851562 L 41.121094 10.546875 Z M 30.3125 6.488281 C 30.332031 6.339844 30.378906 6.195312 30.453125 6.0625 C 30.53125 5.933594 30.628906 5.820312 30.75 5.726562 C 30.871094 5.632812 31.003906 5.566406 31.152344 5.527344 C 31.296875 5.488281 31.445312 5.480469 31.597656 5.5 C 31.746094 5.519531 31.890625 5.566406 32.019531 5.644531 C 32.152344 5.722656 32.265625 5.820312 32.355469 5.941406 C 32.449219 6.0625 32.515625 6.199219 32.554688 6.34375 C 32.59375 6.492188 32.601562 6.640625 32.582031 6.792969 L 32.242188 9.359375 L 29.96875 9.054688 Z M 19.160156 4.996094 C 19.191406 4.765625 19.28125 4.5625 19.4375 4.386719 C 19.589844 4.210938 19.777344 4.09375 20 4.035156 C 20.226562 3.972656 20.445312 3.980469 20.664062 4.058594 C 20.886719 4.132812 21.066406 4.261719 21.207031 4.449219 C 21.398438 4.699219 21.472656 4.984375 21.429688 5.300781 L 21.089844 7.863281 L 18.820312 7.558594 Z M 8.007812 3.5 C 8.03125 3.347656 8.078125 3.207031 8.152344 3.074219 C 8.230469 2.941406 8.328125 2.832031 8.449219 2.738281 C 8.570312 2.644531 8.703125 2.578125 8.851562 2.539062 C 8.996094 2.5 9.144531 2.492188 9.296875 2.511719 C 9.445312 2.53125 9.585938 2.578125 9.71875 2.65625 C 9.851562 2.734375 9.960938 2.832031 10.054688 2.953125 C 10.148438 3.074219 10.210938 3.207031 10.253906 3.355469 C 10.292969 3.503906 10.300781 3.652344 10.28125 3.804688 L 9.941406 6.371094 L 7.667969 6.066406 Z M 5.335938 8.773438 C 5.148438 8.75 4.996094 8.664062 4.875 8.515625 C 4.757812 8.371094 4.703125 8.203125 4.714844 8.011719 C 4.726562 7.824219 4.804688 7.664062 4.941406 7.535156 C 5.078125 7.40625 5.242188 7.339844 5.429688 7.339844 C 5.460938 7.339844 5.492188 7.34375 5.523438 7.347656 L 55.699219 14.070312 C 55.894531 14.097656 56.054688 14.1875 56.175781 14.347656 C 56.292969 14.503906 56.339844 14.683594 56.316406 14.878906 C 56.289062 15.078125 56.199219 15.234375 56.039062 15.355469 C 55.882812 15.476562 55.707031 15.523438 55.511719 15.496094 Z M 16.691406 11.863281 L 15.691406 19.382812 L 9.878906 18.605469 L 10.875 11.085938 Z M 9.34375 10.878906 L 8.34375 18.398438 L 6.074219 18.09375 L 7.070312 10.574219 Z M 3.738281 20.800781 C 3.542969 20.777344 3.386719 20.683594 3.265625 20.527344 C 3.144531 20.367188 3.097656 20.191406 3.125 19.992188 C 3.152344 19.796875 3.242188 19.636719 3.398438 19.515625 C 3.558594 19.394531 3.734375 19.347656 3.929688 19.375 L 18.910156 21.382812 C 18.152344 21.707031 17.425781 22.09375 16.734375 22.542969 Z M 15 23.878906 C 13.273438 25.433594 12.011719 27.308594 11.214844 29.496094 L 8.480469 29.128906 L 9.28125 23.113281 Z M 7.746094 22.90625 L 6.949219 28.921875 L 4.679688 28.617188 L 5.476562 22.601562 Z M 1.871094 31.050781 C 1.675781 30.796875 1.660156 30.53125 1.820312 30.253906 C 1.980469 29.976562 2.21875 29.859375 2.535156 29.902344 L 10.761719 31.003906 C 10.648438 31.472656 10.558594 31.945312 10.496094 32.421875 L 2.34375 31.328125 C 2.148438 31.300781 1.988281 31.210938 1.871094 31.050781 Z M 22.6875 46.6875 C 21.914062 46.582031 21.160156 46.40625 20.417969 46.160156 C 19.675781 45.914062 18.964844 45.601562 18.285156 45.21875 C 17.601562 44.835938 16.960938 44.394531 16.363281 43.890625 C 15.765625 43.386719 15.21875 42.832031 14.722656 42.222656 C 14.230469 41.617188 13.796875 40.96875 13.421875 40.28125 C 13.050781 39.589844 12.742188 38.871094 12.503906 38.125 C 12.265625 37.375 12.101562 36.613281 12.003906 35.832031 C 11.910156 35.054688 11.886719 34.273438 11.941406 33.488281 C 11.992188 32.707031 12.113281 31.933594 12.3125 31.175781 C 12.507812 30.414062 12.773438 29.679688 13.105469 28.972656 C 13.441406 28.261719 13.835938 27.589844 14.296875 26.957031 C 14.757812 26.320312 15.273438 25.738281 15.839844 25.199219 C 16.410156 24.664062 17.027344 24.1875 17.683594 23.765625 C 18.34375 23.347656 19.035156 22.992188 19.761719 22.703125 C 20.488281 22.414062 21.234375 22.199219 22 22.050781 C 22.765625 21.90625 23.539062 21.832031 24.320312 21.832031 C 24.875 21.832031 25.421875 21.867188 25.96875 21.941406 C 26.78125 22.046875 27.570312 22.234375 28.34375 22.496094 C 29.117188 22.761719 29.855469 23.097656 30.5625 23.507812 C 31.269531 23.917969 31.929688 24.394531 32.542969 24.933594 C 33.15625 25.476562 33.710938 26.074219 34.207031 26.722656 C 34.703125 27.375 35.132812 28.070312 35.492188 28.804688 C 35.851562 29.542969 36.140625 30.308594 36.347656 31.101562 C 36.558594 31.894531 36.691406 32.699219 36.742188 33.519531 C 36.796875 34.339844 36.765625 35.15625 36.660156 35.96875 C 36.550781 36.78125 36.367188 37.578125 36.101562 38.355469 C 35.835938 39.132812 35.5 39.875 35.089844 40.585938 C 34.679688 41.296875 34.207031 41.957031 33.667969 42.574219 C 33.128906 43.191406 32.535156 43.746094 31.882812 44.246094 C 31.234375 44.742188 30.542969 45.171875 29.8125 45.53125 C 29.078125 45.890625 28.316406 46.175781 27.527344 46.386719 C 26.738281 46.597656 25.9375 46.726562 25.125 46.777344 C 24.308594 46.828125 23.496094 46.796875 22.6875 46.6875 Z M 37.886719 37.660156 L 60.816406 40.730469 L 59.996094 46.921875 L 30.457031 46.921875 C 31.375 46.46875 32.234375 45.921875 33.03125 45.28125 C 33.832031 44.640625 34.550781 43.921875 35.195312 43.121094 C 35.835938 42.320312 36.386719 41.460938 36.839844 40.539062 C 37.292969 39.617188 37.644531 38.65625 37.886719 37.660156 Z M 37.886719 37.660156 " fill-opacity="1" fill-rule="nonzero"/></g></g></g></g></g><g clip-path="url(#a39f2fd22c)"><path stroke-linecap="butt" transform="matrix(0.74512, 0.00385745, -0.00385745, 0.74512, 2.040054, 48.481111)" fill="none" stroke-linejoin="miter" d="M 0.0012703 0.502406 L 96.582832 0.50044 " stroke="#737373" stroke-width="1" stroke-opacity="1" stroke-miterlimit="4"/></g></svg>